<svg xmlns="http://www.w3.org/2000/svg" viewBox="0 0 195 176">
  <defs>
    <clipPath id="a">
      <path fill="none" d="M156 76v52c0 33-27 47-49 47H10c-3 0-9-1-9-7V80C1 36 36 1 79 1s77 31 77 75Z"/>
    </clipPath>
  </defs>
  <g clip-path="url(#a)">
    <path fill="#dcdcdc" d="M0 0h186v194H0z" data-name="Bottom White"/>
    <path fill="#231f20" d="m-6 100 148-71c0-8-27-32-69-31C24 1 3 49 3 49Z" data-name="Top Black"/>
    <path fill="#cb2f27" d="M144 30c-33-4-56 16-70 29-16 15-31 43-30 49l21 37c27-21 70-29 86 11 42-71-7-126-7-126Z" data-name="Red"/>
    <path fill="#dcdcdc" d="M-3 88c5-18 39-48 75-48s43 22 43 29c0 14-10 22-23 22-10 0-24-9-25-19-6 4-19 17-20 38 0 0-33-8-50-9Z" data-name="Koru"/>
    <circle cx="92" cy="69" r="14" fill="#231f20" data-name="Eye"/>
    <path fill="#231f20" d="M58 177c20-20 7-77-26-86s-40 17-40 17l5 67Z"/>
  </g>
  <path fill="#e2752a" d="m154 59 38 20a4 4 0 0 1 2 3c0 1 0 3-2 4 0 0-31 13-36 13-5 1-21-1-21-17l19-23Z" data-name="Beak"/>
</svg>

