<svg xmlns="http://www.w3.org/2000/svg" data-name="Layer 1" viewBox="0 0 222 420.47">
  <path d="M134.87 348H72.43v-60.66a6.82 6.82 0 0 0-.44-2.83c-4-8.37-8-16.69-12.27-25.45-2.59 5-5 9.73-7.42 14.43-6.3 12.36-14.1 23.65-24.18 33.25-8.24 7.86-17.73 13.94-28.12 19.65.34-8.65.61-16.84 1-25 .44-9.69.76-19.39 1.51-29.05.91-11.6 2.16-23.17 3.4-34.74a253.42 253.42 0 0 1 8.34-42.65c5.14-18 12.14-35.15 23.38-50.32 8.7-11.75 18.53-22.24 31.83-28.87 11.4-5.69 23.33-8 36-5.47a19.61 19.61 0 0 0 2.92 0c-2-2.92-3.36-5.65-5.41-7.71-4.2-4.22-8.63-8.25-13.22-12-14.81-12.27-20.49-28.11-19.92-46.99.62-20.13 15.48-35.94 30.68-41.07 15.44-5.22 30-2.28 42 8.33a37.23 37.23 0 0 0 16.35 8.3c20.77 5.31 41.53 10.64 63.1 16.17-1.62.8-2.82 1.8-4.11 2-8.61 1.1-17.25 1.92-25.85 3-10.53 1.35-21 2.76-31.53 4.37A495.68 495.68 0 0 0 135 49.21a32.93 32.93 0 0 0-9.42 3.71c-5.16 2.93-6.18 7.77-2.38 12.27 2.61 3.09 6 5.48 9.15 8.15a65.18 65.18 0 0 1 22.88 43.1c3.53 29.41-6.66 54.67-22.86 78.19a158.71 158.71 0 0 1-31.36 34C90.5 237 86.15 248.3 84.24 260.69c-1.19 7.77-.63 15.82-.79 23.74a5.66 5.66 0 0 0 .77 2.47 6805.1 6805.1 0 0 0 24.66 47.17 5.26 5.26 0 0 0 3.21 2.34c8.45 1.84 16.1 5.2 22.78 11.59ZM15.35 260.34c1.21-.86 2.1-1.41 2.9-2.07 15.62-12.7 31.42-25.18 46.78-38.19 12-10.19 23.16-21.39 32.26-34.4 8.67-12.4 14.88-25.8 15.89-41.19 1.08-16.45-8.54-24.26-22.32-22.77-11.41 1.23-21 6.81-29.38 14.49-14 12.79-23.5 28.56-30.38 46-9.81 24.99-12.98 51.28-15.75 78.13ZM183.51 34.45c-.58-.11-1.92-.34-3.24-.6-12.88-2.47-25.75-5-38.63-7.41-2.58-.49-4.15-2.09-5.86-4-2.32-2.54-4.83-5.32-7.85-6.76-14.66-7-28.29-3.3-38.79 10.18-9.32 12-9.16 31.55-.44 45.27 4.13 6.49 9.83 11.43 15.72 16.1 14.07 11.14 20.48 25.93 21.32 43.48.6 12.72-1 25.26-5.7 37.06-5.55 13.91-11.94 27.49-18 41.21l-1.25 2.84A145.28 145.28 0 0 0 132 171c9.22-18.19 13.93-37.25 10.17-57.69-2.16-11.77-7.53-21.9-16.86-29.66-3.6-3-7.47-5.69-10.93-8.84-5.35-4.88-8.72-10.81-6.1-18.25 2.52-7.17 8.06-11.5 15.31-13.17 5.47-1.26 11.14-1.72 16.71-2.54ZM11.06 307c8.58-6.89 16.14-14 21.22-23.14 6.44-11.55 12.16-23.5 18.17-35.29l-.35-.41c-1.65 1.4-3.25 2.82-4.93 4.16-9.62 7.66-19.31 15.25-28.85 23a7.19 7.19 0 0 0-2.1 4.16c-.71 4.23-1.1 8.51-1.58 12.78-.53 4.74-1.02 9.45-1.58 14.74Zm76.41-91.16c-7.79 7-15.56 14-23.24 21.06a2.8 2.8 0 0 0-.38 2.51c2.56 6.4 5.25 12.74 7.66 18.51l15.96-42.08ZM83.37 309v27.43h14.7l-14.42-27.34c-.03-.04-.18-.04-.28-.09Z"/>
  <circle cx="121.5" cy="28.5" r="6.5"/>
  <!-- Font is Flex VF -->
  <path d="M24.59 420H19v-42h5.64Zm14-42h6.59l-14.66 19.67L46.1 420h-7L24 397.92ZM55.18 419.21a12.55 12.55 0 0 1-5-3.84 17.41 17.41 0 0 1-3.05-6.66 40.5 40.5 0 0 1-1-9.72 37.28 37.28 0 0 1 1.11-9.75 19.07 19.07 0 0 1 3.11-6.66 12 12 0 0 1 5-3.84 16.86 16.86 0 0 1 6.59-1.23 18 18 0 0 1 7 1.26 12 12 0 0 1 5 3.93 18.25 18.25 0 0 1 3 6.72 40.68 40.68 0 0 1 1 9.57 38.18 38.18 0 0 1-1.11 9.9 18.42 18.42 0 0 1-3.15 6.66 11.89 11.89 0 0 1-5 3.75 17.7 17.7 0 0 1-6.68 1.17 17.38 17.38 0 0 1-6.82-1.26Zm11.2-4.77a7.32 7.32 0 0 0 3-2.7 13.67 13.67 0 0 0 1.86-5 42.92 42.92 0 0 0 .59-7.74 39.86 39.86 0 0 0-.65-7.95 13.77 13.77 0 0 0-1.92-5 6.89 6.89 0 0 0-3.12-2.58 11.48 11.48 0 0 0-4.31-.75 10.42 10.42 0 0 0-4 .75 7 7 0 0 0-3.11 2.61 13.7 13.7 0 0 0-1.95 5 39.3 39.3 0 0 0-.66 7.92 38.57 38.57 0 0 0 .66 7.8 13.32 13.32 0 0 0 2 5 7.46 7.46 0 0 0 3.23 2.67 11 11 0 0 0 4.23.78 9.77 9.77 0 0 0 4.15-.81Zm3.69-41.85H53.89v-4.26h16.18ZM95.41 420h-5.63v-36.73H79.71V378h25.83v5.28H95.41ZM130.83 378h5.57v26.4a30.92 30.92 0 0 1-.78 7.47 12.07 12.07 0 0 1-2.4 5 9.39 9.39 0 0 1-4.1 2.76 17.94 17.94 0 0 1-5.9.87 18.3 18.3 0 0 1-5.67-.81 9.68 9.68 0 0 1-4.19-2.67 11.72 11.72 0 0 1-2.55-4.95 29.64 29.64 0 0 1-.84-7.65V378h5.64v26a28.45 28.45 0 0 0 .39 5.19 9.41 9.41 0 0 0 1.25 3.48 5.13 5.13 0 0 0 2.34 2 9.23 9.23 0 0 0 3.63.63 9.94 9.94 0 0 0 3.86-.63 4.79 4.79 0 0 0 2.28-2 9.66 9.66 0 0 0 1.14-3.51 34.74 34.74 0 0 0 .33-5.16ZM149.58 420H144v-42h5.63Zm14-42h6.59l-14.62 19.68L171.09 420h-7L149 397.91ZM194.82 378h5.57v26.4a30.92 30.92 0 0 1-.78 7.47 12.06 12.06 0 0 1-2.39 5 9.37 9.37 0 0 1-4.11 2.76 17.9 17.9 0 0 1-5.9.87 18.19 18.19 0 0 1-5.66-.81 9.66 9.66 0 0 1-4.2-2.67 11.71 11.71 0 0 1-2.54-4.95 29.64 29.64 0 0 1-.84-7.65V378h5.63v26a29.37 29.37 0 0 0 .39 5.19 9.59 9.59 0 0 0 1.26 3.48 5.11 5.11 0 0 0 2.33 2 9.23 9.23 0 0 0 3.63.63 9.87 9.87 0 0 0 3.86-.63 4.79 4.79 0 0 0 2.28-2 9.66 9.66 0 0 0 1.14-3.51 34.74 34.74 0 0 0 .33-5.16Z"/>
</svg>
