<svg xmlns="http://www.w3.org/2000/svg" viewBox="0 0 140 139.98">
<ellipse cx="70" cy="70" rx="67" ry="67" fill="#9fd4a8"/>
<path d="M117.57,118c-12.51,14.72-42.76,20.8-68.36,13.85S-4.69,99.25,4.91,61.72c36.26-64.15,79.8,71.92,129.71,1.73C135.57,62.11,145.53,85.09,117.57,118Z" fill="#80c56e"/>
<path d="M70,0A70,70,0,0,0,50.76,137.28a57.77,57.77,0,0,0,6.59,1.56l.24,0c9.74,1.48,24,2.81,42-5.46l.47-.23c.17-.08.35-.14.52-.23h0A70,70,0,0,0,70,0Zm44.6,114.11a83.93,83.93,0,0,0-7.49-6.45c-6.59-4.87-13.82-8-22.16-7.84a18.76,18.76,0,0,0-12.7,4.9,17.9,17.9,0,0,0-3,4.3c-1.15-2.5-1.18-6.77-.19-10.48,1.6-6,5.49-10.24,10.3-13.8,2.87-2.13,6-4,8.57-6.44,9.25-8.67,13.07-19,9.47-31.53L97.14,46c-.16-.44,0-.64.4-.33,2.51,2.17,4,5,5.77,8-.11-2.68-1.07-6.53-5.43-13,6.09,3.1,12.26,5.88,19.4,4.44-1.34-.34-2.69-.64-4-1a52.92,52.92,0,0,1-12.76-6C95.23,35,89.86,32,83.74,30.62c-9.48-2.07-14.8,0-17.84,2-5.55,3.7-6,7.61-8.92,10.91C49.68,51.84,28.5,72,28.88,75.24,36.23,71,48.23,64,59.09,57.49c6.48-3.85,12.29-5.11,15.58-3.67,2.8,1.22,3.76,4.45,1.49,8.93a15.32,15.32,0,0,1-6.63,6.41,68,68,0,0,1-6.76,2.7,26.87,26.87,0,0,0-7.33,4.51,6.48,6.48,0,0,1,3.4-.21A38.93,38.93,0,0,0,48.47,87.22a1.44,1.44,0,0,1,.93.33c-.21.3-.66.91-.82,1.21a53.53,53.53,0,0,0-4.87,11.77A43,43,0,0,0,45,127c.09.23.16.46.23.69a62.78,62.78,0,1,1,69.33-13.55Z" style="fill:#15381b"/>
</svg>
