<svg xmlns="http://www.w3.org/2000/svg" data-name="Layer 1" viewBox="0 0 140 140">
  <ellipse cx="70" cy="70" fill="#9fd4a8" rx="67" ry="67"/>
  <path fill="#80c56e" d="M117.57 118c-12.51 14.72-42.76 20.8-68.36 13.85s-53.9-32.6-44.3-70.13c36.26-64.15 79.8 71.92 129.71 1.73.95-1.34 10.91 21.64-17.05 54.55Z"/>
  <path fill="#fff" d="M71.92 31.74a10.32 10.32 0 0 0-6.11 2.51c-2.34 2.33-6.6 10.47-9.72 12S32.76 70.66 32.76 70.66s32.66-18.84 35-19.08 10.11.74 10.5 3.07.16 11.59-4.45 13.47-23.54 15.69-25.29 24-5.45 16.13-4.28 21 4.22 24.35 13.36 25.73c9.74 1.48 24 2.81 42-5.46 6.51-3 18.36-14.1 12.33-16.63-4.4-4.93-26.17-29.68-43.8-3-5.31-7.77-2.07-23.39 7.07-29S97.49 67.48 96.71 56s-5.25-21.93-11.85-23.4-8.35-1.6-12.94-.86Z"/>
  <path fill="none" d="M121.76 116.58a73.3 73.3 0 0 1-20.39 16 18.52 18.52 0 0 1-14.1 1.86c-11.45-3-19.73-9.64-23.12-21.38-3.24-11.23.5-22.29 9.91-29.4 3.16-2.38 6.63-4.34 9.74-6.78 8.17-6.39 8.79-14.65 7.78-24.93C90.22 38 84.89 30.24 74.49 31.71c-2.42.34-6.2.65-9.81 4.21-1.59 1.57-4.49 5.46-5.7 7-10.5 13.24-25.93 27.4-24.89 27.42 0 0 10.43-6 14.26-8.47 6.1-3.9 9.83-6.58 14.08-8.76 7.33-3.77 13.24-2.87 15.57-1.39 3.85 2.45 4.2 7.52 1.88 12.08-2.21 4.35-5.95 7-10.25 9-2.06 1-4.23 1.68-6.11 3.39a4.63 4.63 0 0 1 2.89.48c-4.6 2.17-8.81 4.53-12.08 8.29a7 7 0 0 1 3.23-.16c-10.88 11.51-13.71 24.72-8.35 39.62a58.85 58.85 0 0 0 3.54 7.44 67.72 67.72 0 0 0 4.68 6.77M71.63 41a2.28 2.28 0 0 1-2.45-2.31 2.41 2.41 0 0 1 2.28-2.34 2.24 2.24 0 0 1 2.33 2.21A2.38 2.38 0 0 1 71.63 41Zm-6.19 97.17c-1.17 0-1.88-1-2.63-1.67a39.6 39.6 0 0 1-7.3-9.31c-2.75-4.63-4.13-11.27-4.44-14a31.7 31.7 0 0 1 2.45-15.81c.11-.27.67-1.35 1-1.43-3.67 17.85 2.39 31.79 17.36 42.22-2.12-.03-4.28 0-6.44-.04Z"/>
  <path fill="none" d="M98.94 126.4c3.86-2.41 7.83-4.63 11.34-8a43.27 43.27 0 0 0-14.88-11.16 23.11 23.11 0 0 0-13.11-2c-8.43 1.33-11.72 9.6-6.39 16.25 4.4 5.51 15 9.92 23.04 4.91Z"/>
  <path fill="#15381b" d="M54.56 95.92c-.37.08-.93 1.16-1 1.43a31.7 31.7 0 0 0-2.45 15.81c.31 2.72 1.69 9.36 4.44 14a39.6 39.6 0 0 0 7.3 9.31c.75.71 3.91 3.45 5.08 3.47a58 58 0 0 0 7.4-.11c-16.67-9.43-24.44-26.06-20.77-43.91ZM71.88 36.31a2.86 2.86 0 0 0-2.7 2.76 2.69 2.69 0 0 0 2.9 2.73 2.82 2.82 0 0 0 2.55-2.87 2.66 2.66 0 0 0-2.75-2.62Z"/>
  <path fill="#15381b" d="M70 0a70 70 0 0 0-19.24 137.28 57.77 57.77 0 0 0 6.59 1.56h.24a71.2 71.2 0 0 1-4.84-7 58.85 58.85 0 0 1-3.54-7.44c-5.36-14.9-2.53-28.11 8.35-39.62a7 7 0 0 0-3.23.16c3.27-3.76 7.48-6.12 12.08-8.29a4.63 4.63 0 0 0-2.89-.48c1.88-1.71 4-2.44 6.11-3.39 4.3-2 8-4.67 10.25-9 2.32-4.56 2-9.63-1.88-12.08-2.33-1.48-8.66-3.33-16 .44-4.24 2.18-7.85 4.66-13.94 8.55-3.84 2.45-11.25 7.55-11.25 7.55-1 0 12.2-11.35 23.37-23.71a24.65 24.65 0 0 0 4.11-5.69 5.85 5.85 0 0 1 .52-1 3.1 3.1 0 0 1 .6-.85 13.17 13.17 0 0 1 9.91-4.34 22.67 22.67 0 0 1 7.7 1.3l.37.13a14.1 14.1 0 0 1 5.3 3.39c3.15 3.05 5.38 7.7 6.07 14.2 1.1 10.27-2.82 18.81-11 25.2-3.11 2.44-6.58 4.4-9.74 6.78-9.41 7.11-13.15 18.17-9.91 29.4 3.39 11.74 11.67 18.38 23.12 21.38a18.45 18.45 0 0 0 13.3-1.43A70 70 0 0 0 70 0Zm22.64 128.51a20.32 20.32 0 0 1-16.74-7c-5.33-6.65-2-14.92 6.39-16.25a23.11 23.11 0 0 1 13.11 2 43.11 43.11 0 0 1 14.7 11 63.09 63.09 0 0 1-17.46 10.25Zm22-14.4a83.93 83.93 0 0 0-7.49-6.45c-6.59-4.87-13.82-8-22.16-7.84a18.76 18.76 0 0 0-12.7 4.9 17.9 17.9 0 0 0-3 4.3c-1.15-2.5-1.18-6.77-.19-10.48 1.6-6 5.49-10.24 10.3-13.8 2.87-2.13 6-4 8.57-6.44 9.25-8.67 13.07-19 9.47-31.53l-.3-.77c-.16-.44 0-.64.4-.33 2.51 2.17 4 5 5.77 8-.11-2.68-1.07-6.53-5.43-13 6.09 3.1 12.26 5.88 19.4 4.44-1.34-.34-2.69-.64-4-1a52.92 52.92 0 0 1-12.76-6C95.23 35 89.86 32 83.74 30.62c-9.48-2.07-14.8 0-17.84 2-5.55 3.7-6 7.61-8.92 10.91-7.3 8.31-28.48 28.47-28.1 31.71C36.23 71 48.23 64 59.09 57.49c6.48-3.85 12.29-5.11 15.58-3.67 2.8 1.22 3.76 4.45 1.49 8.93a15.32 15.32 0 0 1-6.63 6.41 68 68 0 0 1-6.76 2.7 26.87 26.87 0 0 0-7.33 4.51 6.48 6.48 0 0 1 3.4-.21 38.93 38.93 0 0 0-10.37 11.06 1.44 1.44 0 0 1 .93.33c-.21.3-.66.91-.82 1.21a53.53 53.53 0 0 0-4.87 11.77A43 43 0 0 0 45 127c.09.23.16.46.23.69a62.78 62.78 0 1 1 69.33-13.55Z"/>
</svg>
