<?xml version="1.0" encoding="utf-8"?>
<svg version="1.1" xmlns="http://www.w3.org/2000/svg" xmlns:xlink="http://www.w3.org/1999/xlink"
	 viewBox="0 0 180.3 152.7">
<style type="text/css">
	.st0{fill:#73C057;}
	.st1{fill:#E298C2;}
	.st2{fill:#E1B6CF;}
	.st3{fill:#ECE049;}
	.st4{fill:#EEE786;}
	.st5{fill:#4DB8D9;}
	.st6{fill:#8DCFE3;}
	.st7{fill:#A1D28D;}
	.st8{fill:#F0C8DE;}
	.st9{fill:#B6DA9B;}
	.st10{fill:#F3E88B;}
	.st11{fill:#99D9EB;}
	.st12{stroke:#FFFFFF;}
</style>
<path class="st0" d="M94.1,76.4L94.1,76.4c0-0.1,0-0.2,0-0.3C94.1,76.2,94.1,76.2,94.1,76.4L94.1,76.4z"/>
<path class="st0" d="M94.1,76.3c0-0.1,0-0.1,0-0.2C94.1,76.2,94.1,76.3,94.1,76.3L94.1,76.3L94.1,76.3z"/>
<path class="st1" d="M94.1,76.4L94.1,76.4c-139.8,0-1.8-138.9,0-2.7c0,0.8,0,1.7,0,2.5C94-95.4-77.6,76.4,94.1,76.4z"/>
<path class="st2" d="M94.1,76.4L94.1,76.4C17.8,76.4,94.1,3,94.1,76.4C94.1,76.3,94.1,75.7,94.1,76.4C94.1-34.3-16.6,76.4,94.1,76.4
	z"/>
<path class="st0" d="M94.1,76.4L94.1,76.4c-0.1,0-0.2,0-0.3,0C94,76.4,94,76.4,94.1,76.4C94.1,76.4,94.1,76.4,94.1,76.4z"/>
<path class="st0" d="M94.1,76.4c-0.1,0-0.1,0-0.2,0C94,76.4,94,76.4,94.1,76.4L94.1,76.4C94.1,76.4,94.1,76.4,94.1,76.4z"/>
<path class="st3" d="M94.1,76.4L94.1,76.4c0,139.8-138.9,1.8-2.7,0c0.8,0,1.7,0,2.5,0C-77.6,76.4,94.1,248.1,94.1,76.4z"/>
<path class="st4" d="M94.1,76.4L94.1,76.4c0,76.8-76.8,0-1.7,0C93,76.4,93.5,76.4,94.1,76.4C-16.6,76.4,94.1,187.1,94.1,76.4z"/>
<path class="st0" d="M94.1,76.1L94.1,76.1c0,0.1,0,0.2,0,0.3C94.1,76.3,94.1,76.2,94.1,76.1C94.1,76.2,94.1,76.2,94.1,76.1z"/>
<path class="st0" d="M94.1,76.2c0,0.1,0,0.1,0,0.2C94.1,76.3,94.1,76.2,94.1,76.2L94.1,76.2C94.1,76.2,94.1,76.2,94.1,76.2z"/>
<path class="st5" d="M94.1,76.4L94.1,76.4c139.8,0,1.8,138.9,0,2.7c0-0.8,0-1.7,0-2.5C94.2,248.1,265.9,76.4,94.1,76.4z"/>
<path class="st6" d="M94.1,76.4L94.1,76.4C170.9,76.4,94.1,151.4,94.1,76.4C94.1,76.4,94.1,77,94.1,76.4
	C94.2,187.1,204.9,76.4,94.1,76.4z"/>
<path class="st0" d="M94.1,76.4L94.1,76.4c0.1,0,0.2,0,0.3,0C94.3,76.4,94.3,76.4,94.1,76.4L94.1,76.4z"/>
<path class="st0" d="M94.2,76.4c0.1,0,0.1,0,0.2,0C94.3,76.4,94.2,76.4,94.2,76.4L94.2,76.4L94.2,76.4z"/>
<path class="st0" d="M94.1,76.4L94.1,76.4c0-139.8,138.9-1.8,2.7,0c-0.8,0-1.7,0-2.5,0C265.9,76.3,94.1-95.4,94.1,76.4z"/>
<path class="st7" d="M94.1,76.4L94.1,76.4C94.1-0.5,169.2,76.4,94.1,76.4C94.1,76.4,94.8,76.4,94.1,76.4
	C204.8,76.3,94.1-34.4,94.1,76.4z"/>
<path class="st8" d="M94.1,76.3C94.1,32.3,50.1,76.4,94.1,76.3"/>
<path class="st9" d="M94.1,76.4C138.2,76.4,94.1,32.3,94.1,76.4"/>
<path class="st10" d="M94.1,76.4C50.1,76.4,94.1,120.4,94.1,76.4"/>
<path class="st11" d="M94.1,76.4C94.1,120.4,138.2,76.4,94.1,76.4"/>
<g>
	<path class="st12" d="M19.6,64.9c1.5,0.8,2.7,1.8,3.4,3.2c0.8,1.4,1.1,3,1.1,4.9c0,1.9-0.4,3.5-1.1,4.9c-0.8,1.4-1.9,2.5-3.4,3.2
		s-3.4,1.1-5.6,1.1H9.9v6.1c0,0.5-0.1,0.9-0.3,1.1c-0.2,0.2-0.6,0.3-1.1,0.3H5.8c-0.5,0-0.9-0.1-1.1-0.3c-0.2-0.2-0.3-0.6-0.3-1.1
		V65.1c0-0.5,0.1-0.9,0.3-1.1c0.2-0.2,0.6-0.3,1.1-0.3H14C16.2,63.8,18.1,64.1,19.6,64.9z M17.3,76.1c0.9-0.7,1.3-1.7,1.3-3.1
		c0-1.4-0.4-2.4-1.3-3.1c-0.9-0.7-2.2-1-3.9-1H9.9v8.2h3.5C15.1,77.1,16.4,76.8,17.3,76.1z"/>
	<path class="st12" d="M52.1,88.2c0,0.4-0.2,0.7-0.5,0.9c-0.4,0.3-0.9,0.5-1.7,0.7c-0.7,0.2-1.3,0.3-1.8,0.3c-0.4,0-0.7-0.1-1-0.2
		c-0.2-0.1-0.4-0.4-0.5-0.7l-1.5-4.2h-9.6l-1.6,4.2c-0.1,0.3-0.3,0.5-0.5,0.7c-0.2,0.1-0.6,0.2-1,0.2c-0.4,0-1-0.1-1.8-0.3
		c-0.8-0.2-1.4-0.4-1.7-0.7c-0.3-0.3-0.5-0.6-0.5-0.9c0-0.2,0-0.4,0.1-0.6l8.7-22.9c0.2-0.5,0.5-0.9,1-1.1c0.5-0.2,1.2-0.3,2.1-0.3
		s1.7,0.1,2.1,0.3c0.5,0.2,0.8,0.6,1,1.1L52,87.6C52.1,87.8,52.1,88,52.1,88.2z M37.2,79.8h6.2l-3-9h-0.1L37.2,79.8z"/>
	<path class="st12" d="M77,87c0.2,0.3,0.3,0.5,0.3,0.8c0,0.3-0.1,0.6-0.4,0.9s-0.8,0.6-1.4,0.8c-1,0.4-1.7,0.6-2.2,0.6
		c-0.5,0-0.9-0.2-1.2-0.7L67,81h-3.6v7.4c0,0.5-0.1,0.9-0.3,1.1s-0.6,0.3-1.1,0.3h-2.7c-0.5,0-0.9-0.1-1.1-0.3
		c-0.2-0.2-0.3-0.6-0.3-1.1V65.1c0-0.5,0.1-0.9,0.3-1.1c0.2-0.2,0.6-0.3,1.1-0.3h8.5c2,0,3.8,0.3,5.2,1c1.4,0.7,2.5,1.7,3.3,3
		c0.7,1.3,1.1,2.8,1.1,4.6c0,1.9-0.4,3.4-1.2,4.8c-0.8,1.3-1.9,2.3-3.4,2.9L77,87z M63.4,75.8h3.9c1.5,0,2.6-0.3,3.3-0.8
		c0.7-0.6,1.1-1.4,1.1-2.6s-0.4-2.1-1.1-2.6s-1.8-0.8-3.3-0.8h-3.9V75.8z"/>
	<path class="st12" d="M105.9,88.2c0,0.4-0.2,0.7-0.5,0.9c-0.4,0.3-0.9,0.5-1.7,0.7c-0.7,0.2-1.3,0.3-1.8,0.3c-0.4,0-0.7-0.1-1-0.2
		c-0.2-0.1-0.4-0.4-0.5-0.7l-1.5-4.2h-9.6l-1.6,4.2c-0.1,0.3-0.3,0.5-0.5,0.7c-0.2,0.1-0.6,0.2-1,0.2c-0.4,0-1-0.1-1.8-0.3
		c-0.8-0.2-1.4-0.4-1.7-0.7c-0.3-0.3-0.5-0.6-0.5-0.9c0-0.2,0-0.4,0.1-0.6l8.7-22.9c0.2-0.5,0.5-0.9,1-1.1c0.5-0.2,1.2-0.3,2.1-0.3
		s1.7,0.1,2.1,0.3c0.5,0.2,0.8,0.6,1,1.1l8.5,22.9C105.9,87.8,105.9,88,105.9,88.2z M91,79.8h6.2l-3-9h-0.1L91,79.8z"/>
	<path class="st12" d="M125.1,63.7c1.5,0.3,2.9,0.7,4.2,1.2c0.8,0.3,1.1,0.9,1.1,1.8c0,0.4-0.1,0.8-0.2,1.3
		c-0.2,0.7-0.4,1.2-0.7,1.5c-0.3,0.3-0.6,0.5-1,0.5c-0.2,0-0.4,0-0.5-0.1c-1.1-0.4-2.4-0.8-3.7-1c-1.3-0.2-2.6-0.4-3.8-0.4
		c-1.3,0-2.3,0.3-2.9,0.8c-0.7,0.5-1,1.2-1,2.1c0,0.8,0.5,1.4,1.5,1.8c0.4,0.1,0.9,0.2,1.4,0.3c0.5,0.1,1.2,0.2,2,0.3
		c1.5,0.2,2.7,0.4,3.6,0.6c1,0.2,1.9,0.5,2.7,1c1.1,0.6,1.9,1.4,2.5,2.5s0.9,2.4,0.9,4.1c0,1.7-0.4,3.2-1.2,4.5
		c-0.8,1.3-2,2.2-3.5,2.9c-1.5,0.7-3.4,1-5.5,1c-1.6,0-3.2-0.2-4.9-0.5c-1.7-0.3-3.2-0.8-4.4-1.4c-0.7-0.3-1-0.9-1-1.6
		c0-0.4,0.1-0.9,0.3-1.5c0.2-0.6,0.5-1.1,0.8-1.4s0.6-0.4,1-0.4c0.2,0,0.5,0.1,0.7,0.2c1,0.5,2.2,0.9,3.6,1.1
		c1.3,0.3,2.6,0.4,3.9,0.4c1.5,0,2.6-0.3,3.4-0.8c0.8-0.5,1.2-1.2,1.2-2.1c0-0.6-0.1-1-0.4-1.4c-0.3-0.4-0.7-0.7-1.3-0.9
		c-0.5-0.2-1-0.3-1.5-0.4c-0.6-0.1-1.4-0.2-2.3-0.4c-1.4-0.2-2.5-0.4-3.3-0.6c-0.8-0.2-1.6-0.5-2.4-0.8c-1.1-0.5-1.9-1.3-2.6-2.2
		s-0.9-2.2-0.9-3.8c0-1.7,0.4-3.2,1.2-4.4c0.8-1.3,1.9-2.2,3.4-2.9s3.2-1,5.2-1C122.1,63.3,123.6,63.4,125.1,63.7z"/>
	<path class="st12" d="M154.2,64.9c1.8,1.1,3.2,2.6,4.2,4.7c1,2,1.5,4.4,1.5,7.2c0,2.7-0.5,5.1-1.5,7.2c-1,2-2.4,3.6-4.2,4.7
		c-1.8,1.1-3.9,1.6-6.3,1.6c-2.4,0-4.5-0.5-6.3-1.6c-1.8-1.1-3.2-2.7-4.2-4.7c-1-2-1.5-4.4-1.5-7.2c0-2.7,0.5-5.1,1.5-7.2
		c1-2,2.4-3.6,4.2-4.7c1.8-1.1,3.9-1.6,6.3-1.6C150.3,63.3,152.4,63.8,154.2,64.9z M143.2,70.6c-1.1,1.4-1.6,3.5-1.6,6.1
		s0.5,4.7,1.6,6.2c1.1,1.4,2.6,2.1,4.7,2.1c2,0,3.6-0.7,4.7-2.1c1.1-1.4,1.6-3.5,1.6-6.2s-0.5-4.7-1.6-6.1c-1.1-1.4-2.6-2.1-4.7-2.1
		C145.9,68.5,144.3,69.2,143.2,70.6z"/>
	<path class="st12" d="M184.2,84.8c0.2,0.1,0.3,0.4,0.4,0.8c0.1,0.4,0.1,0.9,0.1,1.6c0,0.7,0,1.2-0.1,1.6c-0.1,0.4-0.2,0.6-0.4,0.8
		s-0.5,0.2-0.8,0.2h-16.1c-0.5,0-0.9-0.1-1.1-0.3s-0.3-0.6-0.3-1.1V65.1c0-0.5,0.1-0.9,0.3-1.1c0.2-0.2,0.6-0.3,1.1-0.3h2.7
		c0.5,0,0.9,0.1,1.1,0.3c0.2,0.2,0.3,0.6,0.3,1.1v19.5h12C183.7,84.6,184,84.7,184.2,84.8z"/>
</g>
</svg>
