<?xml version="1.0" encoding="utf-8"?>
<!-- Generator: Adobe Illustrator 14.0.0, SVG Export Plug-In . SVG Version: 6.00 Build 43363)  -->
<!DOCTYPE svg PUBLIC "-//W3C//DTD SVG 1.1//EN" "http://www.w3.org/Graphics/SVG/1.1/DTD/svg11.dtd">
<svg version="1.1" id="Layer_1" xmlns="http://www.w3.org/2000/svg" xmlns:xlink="http://www.w3.org/1999/xlink" x="0px" y="0px"
	 width="720.342px" height="486.263px" viewBox="0 0 720.342 486.263" enable-background="new 0 0 720.342 486.263"
	 xml:space="preserve">
<path fill="#00AEEF" d="M357,1.472c0.485,0,0.971-0.021,1.447-0.021c-0.01,0-0.021,0-0.032,0c-0.559,0-1.12,0.011-1.68,0.021
	c0.042,0,0.084,0,0.127,0C356.903,1.472,356.956,1.472,357,1.472z"/>
<path fill="#00AEEF" d="M370.98,1.641c-4.122-0.116-8.264-0.179-12.428-0.19c1.204,0,2.419,0.021,3.625,0.053
	C365.126,1.535,368.054,1.578,370.98,1.641z"/>
<path fill="#00AEEF" d="M358.468,1.451c-0.011,0-0.011,0-0.021,0c0.032,0,0.073,0,0.106,0C358.52,1.451,358.5,1.451,358.468,1.451z"
	/>
<path fill="#00AEEF" d="M356.735,1.472c-0.116-0.01-0.233-0.021-0.349-0.021c-0.116,0-0.232,0.011-0.358,0.021
	c0.137,0,0.264,0,0.391,0C356.523,1.472,356.628,1.472,356.735,1.472z"/>
<path fill="#00AEEF" d="M356.914,1.472c-0.021,0-0.042,0-0.052,0c-0.148,0-0.296,0-0.444,0c-0.18,0-0.371,0-0.55,0
	c-0.189,0-0.369,0.01-0.549,0.021C355.847,1.482,356.386,1.472,356.914,1.472z"/>
<path fill="#00AEEF" d="M88.839,185.254C90.562,96.144,208.673,2.308,355.868,1.472c0.053,0,0.106,0,0.16,0
	c-0.899-0.01-1.808-0.021-2.717-0.021C149.458,1.451,6.677,74.662,2.506,151.331c-0.278,5.168-0.243,35.604-0.243,35.604h46.552
	c0.297,0.096,0.603,0.19,0.9,0.275v33.196L89,220.438"/>
<rect x="64.49" y="233.34" fill="#00AEEF" width="25.956" height="26.717"/>
<rect x="8.964" y="220.987" fill="#00AEEF" width="24.349" height="30.129"/>
<rect x="34.94" y="269.761" opacity="0.66" fill="#00AEEF" width="29.549" height="31.346"/>
<rect x="19.364" y="309.36" opacity="0.34" fill="#00AEEF" width="13.4" height="20.957"/>
<path fill="#EEBB25" d="M194.606,208.177c0,0.751,0,2.188,0,2.188v37.189h36.27v-11.499h46.057v16.349h24.108
	c0,0-0.034-35.647-0.034-36.111C301.357,98.785,325.442,3.702,355.318,1.493C266.82,3.702,195.019,92.338,194.606,208.177z"/>
<rect x="194.606" y="261.77" opacity="0.66" fill="#EEBB25" width="36.27" height="37.191"/>
<rect x="256.018" y="252.405" fill="#EEBB25" width="20.916" height="21.456"/>
<rect x="276.934" y="285.434" opacity="0.66" fill="#EEBB25" width="25.818" height="37.19"/>
<rect x="232.684" y="306.328" opacity="0.66" fill="#EEBB25" width="20.915" height="27.022"/>
<rect x="218.026" y="346.424" opacity="0.34" fill="#EEBB25" width="14.658" height="15.018"/>
<rect x="81.706" y="274.96" opacity="0.66" fill="#00AEEF" width="13.411" height="20.958"/>
<path fill="#CA67A8" d="M527,208.24C526.588,92.402,454.788,3.765,366.288,1.557c29.877,2.208,53.962,97.291,54.311,214.801
	c0,0.095,0.042,0.168,0.053,0.253v40.466h38.785v-28.123h33.872v19.372H527v-38.743C527,209.583,527,208.695,527,208.24z"/>
<rect x="459.438" y="255.586" fill="#CA67A8" width="33.681" height="29.859"/>
<rect x="420.652" y="284.028" opacity="0.66" fill="#CA67A8" width="25.987" height="38.596"/>
<rect x="493.119" y="284.735" opacity="0.66" fill="#CA67A8" width="25.987" height="38.597"/>
<rect x="459.438" y="323.332" opacity="0.34" fill="#CA67A8" width="12.988" height="26.959"/>
<path fill="#75C043" d="M368.296,1.514c-0.908,0-1.818,0.011-2.716,0.021c0.053,0,0.106,0,0.159,0
	c147.196,0.836,265.306,94.672,267.029,183.784c0,0.581,0.065,35.087,0.065,35.087h49.415v-33.471h37.094v-31.376
	C719.342,77.099,575.826,1.514,368.296,1.514z"/>
<rect x="682.248" y="221.05" fill="#75C043" width="27.953" height="25.522"/>
<rect x="632.641" y="253.198" opacity="0.66" fill="#75C043" width="37.941" height="34.635"/>
<rect x="703.914" y="261.304" opacity="0.66" fill="#75C043" width="15.367" height="38.112"/>
<path opacity="0.66" d="M100.66,415.492c5.31,4.438,7.966,11.277,7.966,20.515c0,9.239-2.711,16.005-8.129,20.297
	c-5.42,4.293-13.732,6.438-24.934,6.438H62.031v22.37H49.155v-76.275h26.189C86.911,408.836,95.349,411.056,100.66,415.492z
	 M91.548,446.974c2.582-2.728,3.874-6.728,3.874-12.003c0-5.273-1.637-9.003-4.91-11.186c-3.273-2.182-8.402-3.273-15.386-3.273
	H62.031v30.554h14.95C84.109,451.065,88.965,449.702,91.548,446.974z"/>
<path opacity="0.66" d="M152.273,467.761l-7.639,17.351h-13.749l33.609-76.275h13.75l33.609,76.275h-13.749l-7.639-17.351H152.273z
	 M185.228,455.867L171.37,424.44l-13.858,31.427H185.228z"/>
<path opacity="0.66" d="M305.15,433.606c0,12.586-5.494,20.515-16.478,23.788l19.969,27.717h-16.368l-18.223-25.644h-16.914v25.644
	h-12.876v-76.275h28.372c11.638,0,19.969,1.964,24.989,5.893S305.15,424.95,305.15,433.606z M288.018,444.409
	c2.619-2.254,3.929-5.874,3.929-10.857c0-4.981-1.347-8.402-4.038-10.257c-2.692-1.855-7.494-2.783-14.404-2.783h-16.368v27.28
	h16.041C280.452,447.792,285.399,446.665,288.018,444.409z"/>
<path opacity="0.66" d="M356.327,467.761l-7.639,17.351h-13.749l33.609-76.275h13.75l33.609,76.275h-13.749l-7.639-17.351H356.327z
	 M389.281,455.867l-13.858-31.427l-13.858,31.427H389.281z"/>
<path opacity="0.66" d="M471.394,418.875c-3.748,0-6.82,0.764-9.221,2.292c-2.4,1.527-3.601,3.838-3.601,6.929
	c0,3.093,1.201,5.456,3.601,7.093c2.401,1.637,7.511,3.401,15.332,5.293c7.819,1.893,13.712,4.547,17.678,7.966
	c3.964,3.42,5.947,8.456,5.947,15.112c0,6.657-2.51,12.059-7.529,16.205s-11.604,6.22-19.751,6.22
	c-11.932,0-22.516-4.109-31.754-12.331l8.075-9.711c7.71,6.693,15.713,10.039,24.006,10.039c4.146,0,7.437-0.891,9.875-2.674
	c2.437-1.782,3.655-4.146,3.655-7.093s-1.146-5.238-3.437-6.875s-6.239-3.127-11.84-4.474c-5.603-1.346-9.858-2.581-12.767-3.71
	c-2.91-1.127-5.494-2.601-7.748-4.42c-4.511-3.418-6.765-8.656-6.765-15.713c0-7.056,2.564-12.494,7.693-16.313
	c5.128-3.819,11.475-5.729,19.042-5.729c4.873,0,9.711,0.801,14.513,2.4c4.801,1.601,8.948,3.856,12.439,6.766l-6.875,9.712
	c-2.256-2.036-5.311-3.711-9.166-5.021C478.94,419.53,475.14,418.875,471.394,418.875z"/>
<path opacity="0.66" d="M602.719,474.581c-7.711,7.529-17.24,11.294-28.588,11.294c-11.35,0-20.881-3.765-28.59-11.294
	c-7.713-7.529-11.568-16.913-11.568-28.153c0-11.239,3.855-20.623,11.568-28.152c7.709-7.529,17.24-11.294,28.59-11.294
	c11.348,0,20.877,3.765,28.588,11.294s11.568,16.913,11.568,28.152C614.287,457.668,610.43,467.052,602.719,474.581z
	 M593.281,426.841c-5.203-5.383-11.586-8.075-19.15-8.075c-7.568,0-13.951,2.692-19.152,8.075
	c-5.201,5.385-7.801,11.913-7.801,19.587c0,7.677,2.6,14.205,7.801,19.588c5.201,5.384,11.584,8.074,19.152,8.074
	c7.564,0,13.947-2.69,19.15-8.074c5.199-5.383,7.801-11.911,7.801-19.588C601.082,438.754,598.48,432.226,593.281,426.841z"/>
<path opacity="0.66" d="M652.369,485.111v-76.275h12.875v64.054h34.811v12.222H652.369z"/>
</svg>
