<?xml version="1.0" encoding="utf-8"?>
<!-- Generator: Adobe Illustrator 14.0.0, SVG Export Plug-In . SVG Version: 6.00 Build 43363)  -->
<!DOCTYPE svg PUBLIC "-//W3C//DTD SVG 1.1//EN" "http://www.w3.org/Graphics/SVG/1.1/DTD/svg11.dtd">
<svg version="1.1" id="Layer_1" xmlns="http://www.w3.org/2000/svg" xmlns:xlink="http://www.w3.org/1999/xlink" x="0px" y="0px"
	 width="719.092px" height="362.125px" viewBox="0 0 719.092 362.125" enable-background="new 0 0 719.092 362.125"
	 xml:space="preserve">
<path fill="#00AEEF" d="M355.75,1.472c0.485,0,0.971-0.021,1.447-0.021c-0.01,0-0.021,0-0.032,0c-0.559,0-1.12,0.011-1.68,0.021
	c0.042,0,0.084,0,0.127,0C355.653,1.472,355.706,1.472,355.75,1.472z"/>
<path fill="#00AEEF" d="M369.73,1.641c-4.122-0.116-8.264-0.179-12.428-0.19c1.204,0,2.419,0.021,3.625,0.053
	C363.876,1.535,366.804,1.578,369.73,1.641z"/>
<path fill="#00AEEF" d="M357.218,1.451c-0.011,0-0.011,0-0.021,0c0.032,0,0.073,0,0.106,0C357.27,1.451,357.25,1.451,357.218,1.451z
	"/>
<path fill="#00AEEF" d="M355.485,1.472c-0.116-0.01-0.233-0.021-0.349-0.021c-0.116,0-0.232,0.011-0.358,0.021
	c0.137,0,0.264,0,0.391,0C355.273,1.472,355.378,1.472,355.485,1.472z"/>
<path fill="#00AEEF" d="M355.664,1.472c-0.021,0-0.042,0-0.052,0c-0.148,0-0.296,0-0.444,0c-0.18,0-0.371,0-0.55,0
	c-0.189,0-0.369,0.01-0.549,0.021C354.597,1.482,355.136,1.472,355.664,1.472z"/>
<path fill="#00AEEF" d="M87.589,185.254C89.312,96.144,207.423,2.308,354.618,1.472c0.053,0,0.106,0,0.16,0
	c-0.899-0.01-1.808-0.021-2.717-0.021C148.208,1.451,5.427,74.662,1.256,151.331c-0.278,5.168-0.243,35.604-0.243,35.604h46.552
	c0.297,0.096,0.603,0.19,0.9,0.275v33.196l39.284,0.032"/>
<rect x="63.24" y="233.34" fill="#00AEEF" width="25.956" height="26.717"/>
<rect x="7.714" y="220.987" fill="#00AEEF" width="24.349" height="30.129"/>
<rect x="33.69" y="269.761" opacity="0.66" fill="#00AEEF" width="29.549" height="31.346"/>
<rect x="18.114" y="309.36" opacity="0.34" fill="#00AEEF" width="13.4" height="20.957"/>
<path fill="#EEBB25" d="M193.356,208.177c0,0.751,0,2.188,0,2.188v37.189h36.27v-11.499h46.057v16.349h24.108
	c0,0-0.034-35.647-0.034-36.111C300.107,98.785,324.192,3.702,354.068,1.493C265.57,3.702,193.769,92.338,193.356,208.177z"/>
<rect x="193.356" y="261.77" opacity="0.66" fill="#EEBB25" width="36.27" height="37.191"/>
<rect x="254.768" y="252.405" fill="#EEBB25" width="20.916" height="21.456"/>
<rect x="275.684" y="285.434" opacity="0.66" fill="#EEBB25" width="25.818" height="37.19"/>
<rect x="231.434" y="306.328" opacity="0.66" fill="#EEBB25" width="20.915" height="27.022"/>
<rect x="216.776" y="346.424" opacity="0.34" fill="#EEBB25" width="14.658" height="15.018"/>
<rect x="80.456" y="274.96" opacity="0.66" fill="#00AEEF" width="13.411" height="20.958"/>
<path fill="#CA67A8" d="M525.75,208.24C525.338,92.402,453.538,3.765,365.038,1.557C394.915,3.765,419,98.848,419.349,216.357
	c0,0.095,0.042,0.168,0.053,0.253v40.466h38.785v-28.123h33.872v19.372h33.691v-38.743C525.75,209.583,525.75,208.695,525.75,208.24
	z"/>
<rect x="458.188" y="255.586" fill="#CA67A8" width="33.681" height="29.859"/>
<rect x="419.402" y="284.028" opacity="0.66" fill="#CA67A8" width="25.987" height="38.596"/>
<rect x="491.869" y="284.735" opacity="0.66" fill="#CA67A8" width="25.987" height="38.597"/>
<rect x="458.188" y="323.332" opacity="0.34" fill="#CA67A8" width="12.988" height="26.959"/>
<path fill="#75C043" d="M367.046,1.514c-0.908,0-1.818,0.011-2.716,0.021c0.053,0,0.106,0,0.159,0
	c147.196,0.836,265.306,94.672,267.029,183.784c0,0.581,0.065,35.087,0.065,35.087h49.415v-33.471h37.094v-31.376
	C718.092,77.099,574.576,1.514,367.046,1.514z"/>
<rect x="680.998" y="221.05" fill="#75C043" width="27.953" height="25.522"/>
<rect x="631.391" y="253.198" opacity="0.66" fill="#75C043" width="37.941" height="34.635"/>
<rect x="702.664" y="261.304" opacity="0.66" fill="#75C043" width="15.367" height="38.112"/>
</svg>
