<?xml version="1.0" encoding="utf-8"?>
<!-- Generator: Adobe Illustrator 24.0.1, SVG Export Plug-In . SVG Version: 6.00 Build 0)  -->
<svg version="1.1" id="Layer_1" xmlns="http://www.w3.org/2000/svg" xmlns:xlink="http://www.w3.org/1999/xlink" x="0px" y="0px"
	 viewBox="0 0 171.7 171.8" style="enable-background:new 0 0 171.7 171.8;" xml:space="preserve">
<style type="text/css">
	.st0{fill:url(#SVGID_1_);}
	.st1{fill:#1C3330;}
	.st2{clip-path:url(#SVGID_11_);}
	.st3{fill:#DCDCDC;}
	.st4{fill:#231F20;}
	.st5{fill:#CB2F27;}
	.st6{fill:#E2752A;}
</style>
<linearGradient id="SVGID_1_" gradientUnits="userSpaceOnUse" x1="62.2968" y1="131.2179" x2="135.6355" y2="-10.002">
	<stop  offset="3.712933e-02" style="stop-color:#67AF9D;stop-opacity:0.6"/>
	<stop  offset="0.7665" style="stop-color:#6CB9A6"/>
	<stop  offset="0.9216" style="stop-color:#E0D1B7"/>
</linearGradient>
<path class="st0" d="M57.9,19.8c8.9-3.8,18.2-5.6,27.9-5.6s19,1.9,27.9,5.6c8.6,3.6,16.2,8.8,22.8,15.4c6.6,6.6,11.8,14.2,15.4,22.8
	c3.8,8.9,5.6,18.1,5.6,27.9s-1.9,19-5.6,27.9c-3.6,8.6-8.8,16.2-15.4,22.8c-6.6,6.6-14.2,11.8-22.8,15.4c-8.9,3.8-18.2,5.6-27.9,5.6
	s-19-1.9-27.9-5.6c-8.6-3.6-16.2-8.8-22.8-15.4s-11.7-14.2-15.4-22.8c-3.8-8.9-5.6-18.2-5.6-27.9s1.9-19,5.6-27.8
	c3.6-8.6,8.8-16.2,15.4-22.8C41.8,28.6,49.3,23.4,57.9,19.8z"/>
<path class="st1" d="M58.3,20.6c-8.5,3.6-16,8.7-22.5,15.2c-6.5,6.5-11.5,14-15.1,22.5c-3.7,8.8-5.6,18-5.6,27.5
	c0,9.6,1.8,18.8,5.6,27.6c3.6,8.5,8.6,16,15.1,22.5c6.5,6.5,14,11.6,22.5,15.2c8.8,3.7,17.9,5.6,27.6,5.6c9.6,0,18.8-1.9,27.6-5.6
	c8.5-3.6,16-8.7,22.5-15.2c6.5-6.5,11.6-14,15.2-22.5c3.7-8.8,5.6-18,5.6-27.6c0-9.6-1.9-18.8-5.6-27.5c-3.6-8.5-8.7-16-15.2-22.5
	C122.1,22,105.4,15,85.8,15C76.2,15,67,16.9,58.3,20.6z M34.5,34.5c6.9-6.9,14.7-12.1,23.5-15.8s18.1-5.5,27.8-5.5s19,1.8,27.8,5.5
	c8.9,3.7,16.7,8.9,23.6,15.8c6.9,6.9,12.1,14.7,15.8,23.5c3.7,8.8,5.5,18.1,5.5,27.8s-1.8,19-5.5,27.8c-3.6,8.9-8.9,16.7-15.8,23.6
	c-6.8,6.9-14.7,12.1-23.6,15.8c-8.8,3.7-18.1,5.5-27.8,5.5s-19-1.8-27.8-5.5s-16.7-8.9-23.5-15.8c-6.8-6.8-12.1-14.7-15.8-23.6
	c-3.6-8.8-5.4-18.1-5.4-27.8c0-9.7,1.8-19,5.4-27.8C22.4,49.2,27.6,41.4,34.5,34.5z"/>
<g>
	<defs>
		<rect id="SVGID_2_" x="21.4" y="19.2" width="128.8" height="128.6"/>
	</defs>
	<clipPath id="SVGID_4_">
		<use xlink:href="#SVGID_2_"  style="overflow:visible;"/>
	</clipPath>
</g>
<g>
	<defs>
		<rect id="SVGID_5_" x="21.5" y="86" width="128.6" height="61.9"/>
	</defs>
	<clipPath id="SVGID_6_">
		<use xlink:href="#SVGID_5_"  style="overflow:visible;"/>
	</clipPath>
</g>
<g>
	<defs>
		<rect id="SVGID_7_" x="26.2" y="22.2" width="119.2" height="60.5"/>
	</defs>
	<clipPath id="SVGID_8_">
		<use xlink:href="#SVGID_7_"  style="overflow:visible;"/>
	</clipPath>
</g>
<g>
	<defs>
		<rect id="SVGID_9_" x="26.2" y="22.2" width="119.2" height="66.4"/>
	</defs>
	<clipPath id="SVGID_10_">
		<use xlink:href="#SVGID_9_"  style="overflow:visible;"/>
	</clipPath>
</g>
<g>
	<g>
		<defs>
			<path id="SVGID_3_" d="M123.9,79.9v26.2c0,17.1-13.6,23.7-24.7,23.7h-50c-2,0-3.9-0.5-3.9-3.5V81.9c0-22.2,17.6-39.8,39.8-39.8
				S123.9,58.3,123.9,79.9z"/>
		</defs>
		<clipPath id="SVGID_11_">
			<use xlink:href="#SVGID_3_"  style="overflow:visible;"/>
		</clipPath>
		<g class="st2">
			<path class="st3" d="M37.8,38.1h93.7v97.7H37.8V38.1z"/>
			<path class="st4" d="M42.4,91.5l74.5-35.2c0-4-13.6-16.6-34.7-15.6c-24.7,1.5-35.2,25.7-35.2,25.7L42.4,91.5z"/>
			<path class="st5" d="M118.4,56.7c-17.1-2-28.7,8.1-35.8,14.6C75.1,78.9,67,93,67.5,96l10.6,18.6c13.6-10.6,35.8-14.6,43.3,5.5
				C133,91,118.4,56.7,118.4,56.7z"/>
			<path class="st3" d="M43.9,86c2.5-9.6,19.6-24.2,37.8-24.2s21.7,11.1,21.7,14.6c0,6.5-5,11.1-11.6,11.1c-5,0-12.1-4.5-12.6-9.6
				c-3,2-9.6,8.6-10.1,19.1c0,0-16.6-4-25.2-4.5V86z"/>
			<circle class="st4" cx="91.8" cy="76.6" r="7.3"/>
			<path class="st4" d="M74.6,130.8c10.1-10.1,3.5-38.8-13.1-43.3C44.9,82.9,41.4,96,41.4,96l2.5,33.7L74.6,130.8z"/>
		</g>
	</g>
	<path class="st6" d="M122.9,71.3l19.1,10.1c0.6,0.3,0.9,0.9,1,1.5c0,0,0,1.5-1,1.5c0,0-15.6,7-18.1,7c-2.5,0.5-10.1-0.5-10.1-8.6
		C113.9,81.9,122.9,71.3,122.9,71.3z"/>
</g>
</svg>
