<?xml version="1.0" encoding="utf-8"?>

<svg xmlns="http://www.w3.org/2000/svg" xmlns:xlink="http://www.w3.org/1999/xlink" version="1.1" viewBox="19 19 39.5835 39.5836" preserveAspectRatio="xMidyMid meet">
	<path d="M 58.5835,58.5836L 53.0417,58.5836L 58.5835,53.0418L 58.5835,58.5836 Z M 34.0418,52.2504L 30.0836,56.2086L 30.0836,52.2503L 34.0418,52.2504 Z M 41.9584,52.2504L 35.6253,58.5835L 30.0836,58.5835L 30.0833,57.7918L 35.6249,52.2504L 41.9584,52.2504 Z M 49.8746,52.2504L 43.5419,58.5835L 37.2085,58.5835L 43.5415,52.2504L 49.8746,52.2504 Z M 58.5835,45.1241L 58.5835,51.4587L 51.4586,58.5835L 45.125,58.5835L 58.5835,45.1241 Z M 52.2504,34.0418L 52.2503,30.0835L 56.2087,30.0836L 52.2504,34.0418 Z M 58.5835,35.6253L 52.2504,41.9584L 52.2504,35.6249L 57.7918,30.0833L 58.5835,30.0836L 58.5835,35.6253 Z M 58.5835,43.541L 52.2504,49.8745L 52.2504,43.5415L 58.5835,37.2084L 58.5835,43.541 Z M 19,50.6667L 19,19L 50.6667,19L 50.6671,50.6661L 19,50.6667 Z "/>
</svg>
