<?xml version="1.0" encoding="utf-8"?>

<svg xmlns="http://www.w3.org/2000/svg" xmlns:xlink="http://www.w3.org/1999/xlink" version="1.1" viewBox="17.419237501118 9.5014050006315 41.167024957506 57.005519980818" preserveAspectRatio="xMidyMid meet">
	<path d="M 38.0024,9.50133L 58.5858,17.418L 58.5858,22.168L 38.0024,30.0846L 17.4191,22.168L 17.4191,17.418L 38.0024,9.50133 Z M 36.4217,56.6121L 36.4217,39.5889L 28.504,45.9231L 28.504,41.1724L 38.0053,32.4629L 47.5066,41.1724L 47.5066,45.9231L 39.5889,39.5889L 39.5889,56.6121L 36.4217,56.6121 Z M 58.5858,53.8397L 58.5858,58.5897L 38.0024,66.5064L 17.4191,58.5897L 17.4191,53.8397L 34.8382,47.1401L 34.8382,51.7294L 23.7533,55.4244L 38.0053,61.3627L 52.2573,55.4244L 41.1724,51.7295L 41.1724,47.1423L 58.5858,53.8397 Z "/>
</svg>
