<?xml version="1.0" encoding="utf-8"?>

<svg xmlns="http://www.w3.org/2000/svg" xmlns:xlink="http://www.w3.org/1999/xlink" version="1.1" viewBox="1 1 510 510" preserveAspectRatio="xMidyMid meet">
<path fill="#231F20" d="M205.001,1c-18.779,0-34,15.222-34,34v136h-136C16.222,171,1,186.222,1,205v102
	c0,18.779,15.222,34,34.001,34h136v136c0,18.779,15.221,34,34,34H307c18.777,0,34.001-15.221,34.001-34V341H477
	c18.777,0,34-15.221,34-34V205c0-18.778-15.223-34-34-34H341.001V35c0-18.778-15.224-34-34.001-34H205.001z"/>
</svg>
