<?xml version="1.0" encoding="utf-8"?>

<svg xmlns="http://www.w3.org/2000/svg" xmlns:xlink="http://www.w3.org/1999/xlink" version="1.1" viewBox="19 19 38 38" preserveAspectRatio="xMidyMid meet">
	<path d="M 19,19L 57,19L 57,41.1667L 52.25,41.1667L 52.25,57L 49.0833,57L 49.0833,41.1667L 26.9166,41.1667L 26.9167,57L 23.75,57L 23.75,41.1667L 19,41.1667L 19,19 Z M 22.1667,22.1667L 22.1666,38.0001L 53.8333,38.0001L 53.8333,22.1667L 22.1667,22.1667 Z M 23.75,36.4167L 23.75,33.25L 33.25,23.75L 41.1666,23.75L 28.5,36.4167L 23.75,36.4167 Z M 41.1667,36.4167L 33.25,36.4167L 45.9166,23.75L 52.25,23.75L 52.25,25.3333L 41.1667,36.4167 Z M 23.75,28.5L 23.75,23.75L 28.5,23.75L 23.75,28.5 Z M 52.25,36.4167L 45.9167,36.4167L 52.25,30.0833L 52.25,36.4167 Z "/>
</svg>
