<?xml version="1.0" encoding="utf-8"?>

<svg xmlns="http://www.w3.org/2000/svg" xmlns:xlink="http://www.w3.org/1999/xlink" version="1.1" viewBox="1.723 3.653 510 507.12" preserveAspectRatio="xMidyMid meet">
<path fill="#231F20" d="M416.723,12.298L256.724,172.294L96.727,12.298c-5.763-5.764-13.317-8.645-20.87-8.645
	c-7.552,0-15.106,2.881-20.869,8.645L13.249,54.036c-11.526,11.526-11.526,30.213,0,41.738l159.997,159.999L13.249,415.769
	c-11.526,11.526-11.526,30.215,0,41.74l41.74,41.738c11.525,11.526,30.212,11.526,41.738,0l159.997-159.998L416.72,499.245
	c11.528,11.528,30.215,11.528,41.742,0l41.737-41.736c11.524-11.525,11.524-30.214,0-41.74L340.2,255.773L500.199,95.774
	c11.524-11.525,11.524-30.212,0-41.737l-41.737-41.739c-5.764-5.763-13.317-8.645-20.87-8.645
	C430.038,3.653,422.485,6.535,416.723,12.298"/>
</svg>
