<?xml version="1.0" encoding="utf-8"?>

<svg xmlns="http://www.w3.org/2000/svg" xmlns:xlink="http://www.w3.org/1999/xlink" version="1.1" viewBox="42.836 0 440.326 512" preserveAspectRatio="xMidyMid meet">
<polygon fill="none" points="91.097,310.591 91.097,385.157 153.889,310.591 153.889,471.5 200.987,471.5 200.987,310.591 
	263.781,385.157 263.781,310.591 177.442,212.477 "/>
<polygon fill="none" points="338.99,68.749 338.99,142.662 338.99,142.663 412.653,142.663 "/>
<path fill="#231F20" d="M339.99,0H42.836v512h440.326V143.662L339.99,0z M338.99,142.662V68.749l73.663,73.914L338.99,142.662
	L338.99,142.662z M263.781,385.157l-62.794-74.566V471.5h-47.098V310.591l-62.792,74.566v-74.566l86.345-98.114l86.339,98.114
	V385.157z M376.708,397c-10.195,0-18.459-8.266-18.459-18.461c0-10.191,8.264-18.453,18.459-18.453
	c10.194,0,18.455,8.262,18.455,18.453C395.163,388.734,386.903,397,376.708,397z M417.313,301.016
	c-14.764,7.385-22.149,17.303-22.149,29.535v14.764h-36.914v-11.076c0-25.105,22.15-40.604,29.536-47.988
	c14.764-14.766,14.764-16.814,14.764-22.149c0-12.232-9.918-22.15-22.149-22.15c-12.234,0-22.15,9.918-22.15,22.15v11.075h-36.915
	v-7.385c0-30.581,26.443-55.375,59.065-55.375c32.624,0,59.063,21.1,59.063,51.684C439.463,275.176,432.086,293.635,417.313,301.016
	z"/>
</svg>
