<?xml version="1.0" encoding="utf-8"?>

<svg xmlns="http://www.w3.org/2000/svg" xmlns:xlink="http://www.w3.org/1999/xlink" version="1.1" viewBox="42.836 0 440.327 512" preserveAspectRatio="xMidyMid meet">
<polygon fill="none" points="338.99,68.749 338.99,142.662 338.99,142.663 412.653,142.663 "/>
<path fill="#231F20" d="M339.99,0H42.836v512h440.327V143.662L339.99,0z M338.99,142.662V68.749l73.663,73.914L338.99,142.662
	L338.99,142.662z M151.516,414.675c-34.711,0-62.849-28.135-62.849-62.853c0-34.704,28.138-62.842,62.849-62.842
	s62.85,28.138,62.85,62.842C214.365,386.54,186.227,414.675,151.516,414.675z M294.348,266.123l-22.85,22.857h-68.562v-68.562
	l22.854-22.856v45.709c16.668-17.655,42.36-30.369,68.558-30.369c41.435,0,76.434,27.571,87.647,65.362
	c-10.009,1.516-19.255,5.395-27.135,11.055c-6.717-27.18-31.265-47.33-60.513-47.33c-18.466,0-34.288,11.386-45.702,24.135H294.348z
	 M391.482,426.106c-34.711,0-62.854-28.142-62.854-62.853s28.143-62.85,62.854-62.85c34.71,0,62.853,28.139,62.853,62.85
	S426.192,426.106,391.482,426.106z"/>
<path fill="#231F20" d="M151.516,317.541c-18.934,0-34.28,15.351-34.28,34.281c0,18.938,15.347,34.281,34.28,34.281
	c18.935,0,34.281-15.344,34.281-34.281C185.797,332.892,170.45,317.541,151.516,317.541z"/>
</svg>
