<?xml version="1.0" encoding="utf-8"?>

<svg xmlns="http://www.w3.org/2000/svg" xmlns:xlink="http://www.w3.org/1999/xlink" version="1.1" viewBox="7.504 59.298 496.99 387.282" preserveAspectRatio="xMidyMid meet">
<path stroke="#000000" stroke-width="10" d="M14.775,342.16l-0.662,15.859c0,20.27,4.956,35.914,14.87,46.922
	c9.914,11.021,23.018,16.523,39.323,16.523c27.313,0,55.732-15.859,85.254-47.584c18.506-19.824,50.888-77.539,97.151-173.152
	c22.906-47.585,36.121-74.897,39.654-81.952c11.007-21.146,30.617-37.442,58.815-48.904c-18.501,0-44.275,1.105-77.322,3.303
	c-87.236,5.732-130.855,25.342-130.855,58.82c0,15.428,6.609,26.219,19.826,32.384c2.644,1.322,2.313,2.87-0.99,4.624
	c-3.305,1.767-6.837,1.653-10.574-0.33c-3.75-1.982-9.584-7.6-17.514-16.85c-11.896-14.541-17.844-26.985-17.844-37.342
	c0-10.347,3.738-19.713,11.235-28.087c7.488-8.364,22.027-14.539,43.619-18.504c31.722-5.722,67.184-8.592,106.404-8.592
	c111.905,0,175.57,0.444,190.997,1.321c25.549,1.321,38.332,8.374,38.332,21.148c0,7.497-1.985,15.097-5.949,22.802
	c-3.967,7.713-7.272,13.878-9.91,18.505c-2.646,4.625-4.194,7.381-4.632,8.26c-2.207,4.853-5.729,7.495-10.57,7.931
	c-2.645,0.443-3.531-0.879-2.645-3.965c3.076-10.575,4.625-20.045,4.625-28.419c0-17.617-7.056-28.634-21.146-33.043
	c-8.374-3.521-17.632-5.288-27.762-5.288c-37.452,0-63.67,5.731-78.644,17.183c-7.93,6.176-15.099,14.323-21.481,24.454
	c-6.389,10.14-11.231,17.958-14.537,23.461c-3.302,5.515-7.269,13.001-11.896,22.471c-4.629,9.478-8.044,16.634-10.242,21.478
	c-2.214,4.853-5.734,12.34-10.575,22.472c-4.854,10.14-7.716,16.304-8.592,18.502c-1.766,4.856,0,7.271,5.287,7.271l93.186,0.659
	c14.094,0,23.463,1.323,28.089,3.967c4.627,2.645,5.285,7.27,1.979,13.881c-3.307,6.607-7.271,13.547-11.895,20.819
	c-4.626,7.266-7.5,12.555-8.592,15.859c-1.102,3.305-4.078,5.184-8.922,5.619c-0.887-0.436-1.322-0.881-1.322-1.324
	c5.723-13.219,8.595-23.348,8.595-30.402c0-7.042-3.089-10.571-9.255-10.571H264.589c-3.964,0-6.938,1.766-8.92,5.284
	c-1.982,3.533-7.168,13.775-15.531,30.732c-8.374,16.965-14.438,28.975-18.176,36.02c-3.75,7.055-9.147,17.182-16.19,30.4
	c-37.01,66.533-79.091,99.795-126.231,99.795c-14.539,0-27.984-3.965-40.314-11.896c-21.148-14.541-31.723-38.768-31.723-72.697
	v-10.572c0-7.045,1.982-10.578,5.947-10.578C14.33,340.836,14.775,341.281,14.775,342.16z"/>
</svg>
