<?xml version="1.0" encoding="utf-8"?>

<svg xmlns="http://www.w3.org/2000/svg" xmlns:xlink="http://www.w3.org/1999/xlink" version="1.1" viewBox="0.266 0.267 75.826 75.826" preserveAspectRatio="xMidyMid meet">
<path fill="#EE2C24" stroke="#FFFFFF" d="M38.179,0.267C17.24,0.267,0.266,17.241,0.266,38.18c0,20.938,16.974,37.913,37.913,37.913
	c20.938,0,37.913-16.975,37.913-37.913C76.092,17.241,59.117,0.267,38.179,0.267z M38.179,59.516
	c-6.114,0-11.627-2.572-15.517-6.692v10.572l-5.819-5.819V42.058H32.36l5.819,5.819H27.336c2.664,2.977,6.534,4.851,10.843,4.851
	c7.377,0,13.471-5.492,14.419-12.608h6.83C58.449,50.994,49.309,59.516,38.179,59.516z M59.516,34.3H43.998l-5.819-5.819h10.843
	c-2.664-2.976-6.534-4.849-10.843-4.849c-7.376,0-13.471,5.491-14.419,12.608h-6.83c0.98-10.875,10.12-19.396,21.25-19.396
	c6.114,0,11.627,2.571,15.517,6.692V12.963l5.819,5.819V34.3z"/>
</svg>
