<?xml version="1.0" encoding="utf-8"?>

<svg xmlns="http://www.w3.org/2000/svg" xmlns:xlink="http://www.w3.org/1999/xlink" version="1.1" viewBox="8.671 8 497.494 474.932" preserveAspectRatio="xMidyMid meet">
<path fill="#231F20" d="M139.951,444.355c0,13.756,0.598,27.213,2.392,35.287h-40.969l-2.691-14.653h-0.897
	c-9.569,11.663-24.521,17.942-41.866,17.942c-29.605,0-47.249-21.53-47.249-44.855c0-37.979,34.091-55.921,85.825-55.921v-1.795
	c0-7.774-4.187-18.839-26.615-18.839c-14.952,0-30.801,5.083-40.371,10.765l-8.373-29.007c10.167-5.682,30.203-13.157,56.818-13.157
	c48.744,0,63.995,28.708,63.995,63.098V444.355z M95.992,410.563c-23.923,0-42.464,5.683-42.464,23.026
	c0,11.663,7.775,17.345,17.943,17.345c11.064,0,20.634-7.476,23.624-16.746c0.598-2.393,0.897-5.084,0.897-7.775V410.563z"/>
<path fill="#231F20" d="M191.09,267.323h45.454v83.433h0.598c8.672-12.56,23.923-20.634,44.258-20.634
	c34.988,0,60.406,29.007,60.107,73.863c0,52.631-33.193,78.946-66.687,78.946c-17.045,0-33.792-6.279-43.959-23.624h-0.598
	l-1.794,20.335h-38.576c0.598-9.569,1.196-27.213,1.196-43.66V267.323z M236.544,417.441c0,2.991,0.299,5.683,0.897,8.074
	c2.99,11.962,13.457,21.531,26.614,21.531c19.438,0,31.399-14.952,31.399-41.268c0-22.728-10.167-40.67-31.399-40.67
	c-12.261,0-23.624,9.271-26.614,22.429c-0.598,2.691-0.897,5.383-0.897,8.373V417.441z"/>
<path fill="#231F20" d="M495.513,476.054c-8.074,3.888-23.325,6.878-40.67,6.878c-47.249,0-77.452-29.007-77.452-75.059
	c0-42.764,29.307-77.751,83.731-77.751c11.962,0,25.12,2.093,34.689,5.682l-7.177,33.792c-5.383-2.393-13.457-4.486-25.419-4.486
	c-23.923,0-39.474,17.046-39.175,40.969c0,26.914,17.942,41.268,40.072,41.268c10.766,0,19.139-1.794,26.017-4.784L495.513,476.054z
	"/>
<path fill="#231F20" d="M215.227,104.976l96.98,96.985L464.602,8l41.563,41.563L312.207,285.086L173.664,146.539L215.227,104.976z"
	/>
</svg>
