<?xml version="1.0" encoding="utf-8"?>

<svg xmlns="http://www.w3.org/2000/svg" xmlns:xlink="http://www.w3.org/1999/xlink" version="1.1" viewBox="9.208 0.585 58.683 75.45" preserveAspectRatio="xMidyMid meet">
<path d="M11.724,8.969h53.651c1.853,0,2.516,7.545,2.516,7.545H9.208C9.208,16.514,9.871,8.969,11.724,8.969z"/>
<path d="M33.52,0.585h10.06c0.926,0,3.354,2.428,3.354,3.354c0,0.926-2.429,3.354-3.354,3.354H33.52
	c-0.926,0-3.354-2.428-3.354-3.354C30.166,3.014,32.594,0.585,33.52,0.585z"/>
<path d="M60.345,19.029H16.753c-1.853,0-3.354,1.501-3.354,3.354l3.354,50.302c0,1.85,1.5,3.35,3.353,3.35h36.889
	c1.851,0,3.35-1.5,3.35-3.35L63.7,22.383C63.7,20.531,62.198,19.029,60.345,19.029z M54.447,66.948c0,1.438-1.09,2.604-2.436,2.604
	H25.175c-1.347,0-2.439-1.167-2.439-2.604l-2.439-39.111c0-1.44,1.092-2.608,2.439-2.608h31.712c1.349,0,2.441,1.167,2.441,2.608
	L54.447,66.948z"/>
<path d="M38,35.576c3.427,0,6.518,1.44,8.695,3.749v-5.924l3.262,3.261v8.697h-8.695L38,42.097h6.077
	c-1.492-1.667-3.662-2.718-6.077-2.718c-4.133,0-7.548,3.078-8.08,7.065h-3.827C26.642,40.35,31.764,35.576,38,35.576z M38,55.685
	c4.135,0,7.55-3.077,8.082-7.065h3.826C49.36,54.713,44.238,59.488,38,59.488c-3.425,0-6.515-1.44-8.695-3.749v5.924l-3.261-3.261
	v-8.697h8.696L38,52.967h-6.076C33.417,54.635,35.586,55.685,38,55.685z"/>
</svg>
