<?xml version="1.0" encoding="utf-8"?>


<svg xmlns="http://www.w3.org/2000/svg" xmlns:xlink="http://www.w3.org/1999/xlink" version="1.1" viewBox="0 0 162.3 162.375" preserveAspectRatio="xMidyMid meet">
<g>
	<g>
		<rect fill="#D2232A" width="162.3" height="162.3"/>
	</g>
</g>
<g>
	<path fill="#FFFFFF" d="M38.37,0c0.248,0.031,0.401,0.235,0.418,0.669c-19.429,22.847-10.93,45.308-2.514,60.765
		c0.21,0.388-7.827-15.637-8.132-27.564C27.646,14.348,39.279,5.234,39.279,5.234c1.543,19.656,3.245,27.444,5.519,32.639
		c1.195,2.731,2.514,6.165,4.461,9.245c0.621,0.984-3.876,3.59-3.876,3.59c0.472,0.625,5.197-1.086,5.455-1.766
		c0.089-0.231,0.534,0.225,1.063,0.909c-0.809,1.035-3.243,2.512-3.243,2.512c0.333,0.441,2.806-0.29,4.308-0.995
		c0.512,0.782,0.954,1.492,0.977,1.693c0.896,8.764,2.053,14.519,1.922,22.564c-0.24,14.529-2.849,25.541-2.849,25.541
		s3.928,1.976,11.41,1.218c1.569,1.257-0.088,6.537-2.229,11.636c-0.663,1.577,11.215,4.229,11.215,4.229s-7.989,9.542-6.743,10.489
		c1.246,0.951,7.977-1.539,12.493,15.236c2.516,8.237,2.952,7.842,5.98,9.488c5.723,3.112,19.415-4.196,34.001-11.003
		c11.281-5.265,17.26-8.751,23.605-0.417c9.872,12.965,16.04,20.333,16.04,20.333l3.512-0.076V0H38.37z"/>
	<path fill="#FFFFFF" d="M35.403,74.879c-5.244-7.153-11.069-17.368-12.769-32.813C20.495,22.588,35.111,0.48,38.213,0h-3.9
		C2.562,43.347,38.634,79.284,35.403,74.879z"/>
</g>
</svg>
