<?xml version="1.0" encoding="utf-8"?>


<svg xmlns="http://www.w3.org/2000/svg" xmlns:xlink="http://www.w3.org/1999/xlink" version="1.1" viewBox="0.8 0.8 160.7 160.701" preserveAspectRatio="xMidyMid meet">
<path d="M81.149,0.8C36.773,0.8,0.8,36.775,0.8,81.15c0,44.376,35.974,80.351,80.35,80.351S161.5,125.526,161.5,81.15
	C161.5,36.775,125.525,0.8,81.149,0.8z M81.149,157.673c-42.263,0-76.524-34.261-76.524-76.523c0-20.481,8.063-39.069,21.168-52.803
	c-10.18,30.427,12.503,52.895,10.064,49.569c-4.676-6.376-9.87-15.483-11.385-29.253c-0.879-8.005,1.419-16.506,4.421-23.392
	c0.951-0.89,1.923-1.757,2.919-2.597c-7.526,16.448-1.333,31.953,4.821,43.255c0.187,0.347-6.979-13.941-7.251-24.575
	c-0.274-10.829,3.636-18.064,6.63-21.987c1.108-0.812,2.242-1.589,3.395-2.341c1.351,16.639,2.846,23.374,4.825,27.897
	c1.066,2.435,2.241,5.496,3.978,8.242c0.554,0.877-3.42,1.849-3.42,1.849c0.422,0.558,3.816,0.369,4.827-0.223
	c0.191-0.111,0.477,0.2,0.947,0.812c-0.972,0.643-3.558,1.628-3.558,1.628c0.296,0.394,2.831,0,4.506-0.276
	c0.457,0.698,0.852,1.33,0.871,1.51c0.799,7.813,1.83,12.944,1.714,20.117c-0.215,12.953-2.539,22.771-2.539,22.771
	s3.502,1.762,10.173,1.087c1.397,1.119-0.079,5.827-1.987,10.372c-0.592,1.407,9.999,3.771,9.999,3.771s-7.124,8.507-6.013,9.352
	c1.11,0.848,7.111-1.372,11.139,13.583c2.243,7.346,2.631,6.992,5.332,8.46c5.102,2.775,26.765-3.951,71.055-36.146
	C139.429,138.816,112.498,157.673,81.149,157.673z"/>
</svg>
