<?xml version="1.0" encoding="utf-8"?>

<svg xmlns="http://www.w3.org/2000/svg" xmlns:xlink="http://www.w3.org/1999/xlink" version="1.1" viewBox="19 19 38 38" preserveAspectRatio="xMidyMid meet">
	<path d="M 32.4583,30.0833C 34.539,30.0833 36.5094,30.5555 38.2682,31.3985L 45.9167,23.75L 41.1667,19L 57,19L 57,34.8333L 52.25,30.0833L 44.6015,37.7318C 45.4445,39.4906 45.9167,41.461 45.9167,43.5417C 45.9167,50.9745 39.8912,57 32.4583,57C 25.0255,57 19,50.9745 19,43.5417C 19,36.1088 25.0255,30.0833 32.4583,30.0833 Z M 32.4583,34.8333C 27.6488,34.8333 23.75,38.7322 23.75,43.5417C 23.75,48.3512 27.6488,52.25 32.4583,52.25C 37.2678,52.25 41.1667,48.3512 41.1667,43.5417C 41.1667,38.7322 37.2678,34.8333 32.4583,34.8333 Z "/>
</svg>
