<?xml version="1.0" encoding="utf-8"?>

<svg xmlns="http://www.w3.org/2000/svg" xmlns:xlink="http://www.w3.org/1999/xlink" version="1.1" viewBox="25.3333 19 25.3334 38" preserveAspectRatio="xMidyMid meet">
	<path fill="#000000" fill-opacity="1" d="M 41.1667,47.5L 45.9167,47.5L 45.9167,52.25L 41.1667,52.25L 41.1667,57L 34.8333,57L 34.8333,52.25L 30.0833,52.25L 30.0833,47.5L 34.8333,47.5L 34.8333,43.9343C 29.3701,42.5281 25.3333,37.5688 25.3333,31.6667C 25.3333,24.6711 31.0044,19 38,19C 44.9956,19 50.6667,24.6711 50.6667,31.6667C 50.6667,37.5688 46.6299,42.5281 41.1667,43.9343L 41.1667,47.5 Z M 38,23.75C 33.6278,23.75 30.0833,27.2944 30.0833,31.6667C 30.0833,36.0389 33.6277,39.5833 38,39.5833C 42.3722,39.5833 45.9167,36.0389 45.9167,31.6667C 45.9167,27.2944 42.3722,23.75 38,23.75 Z "/>
</svg>
