<?xml version="1.0" encoding="utf-8"?>


<svg xmlns="http://www.w3.org/2000/svg" xmlns:xlink="http://www.w3.org/1999/xlink" version="1.1" viewBox="18.273 0 490.395 511.005" preserveAspectRatio="xMidyMid meet">
<path fill-rule="evenodd" clip-rule="evenodd" d="M492.69,273.188c0,0-23.999-39.31-50.659-39.31
	c-26.639,0-54.616,40.627-54.616,40.627s-29.339-40.584-53.318-40.584c-20.313,0-44.229,27.917-51.161,36.544v155.263
	c0,15.519-1.592,28.689-4.753,39.519c-3.184,10.827-7.896,19.621-14.136,26.407c-6.221,6.784-13.989,11.705-23.288,14.764
	c-9.277,3.058-20.041,4.587-32.271,4.587c-11.121,0-21.088-1.697-29.885-5.048c-8.816-3.372-16.23-8.168-22.282-14.385
	c-6.052-6.243-10.701-13.762-13.947-22.579c-3.226-8.794-4.858-18.637-4.858-29.506v-14.994h42.47
	c0,14.073-0.104,32.502,5.026,39.664c5.131,7.143,12.963,10.722,23.477,10.722c7.099,0,17.234-3.497,17.234-3.497
	s7.771-5.591,10.095-9.801c2.324-4.208,4.67-15.225,4.67-15.225s1.193-12.439,1.193-19.539V267.972
	c-9.508-10.743-32.816-34.763-51.496-34.763c-23.978,0-57.297,39.979-57.297,39.979s-31.978-39.979-53.318-39.979
	c-21.319,0-51.957,39.979-51.957,39.979s-9.34-209.231,202.55-230.55L260.822,0l29.317,42.638
	C508.668,55.956,492.69,273.188,492.69,273.188z"/>
</svg>
