<?xml version="1.0" encoding="utf-8"?>


<svg xmlns="http://www.w3.org/2000/svg" xmlns:xlink="http://www.w3.org/1999/xlink" version="1.1" viewBox="6.137 -1.188 474.409 483.609" preserveAspectRatio="xMidyMid meet">
<g>
	<g>
		<path fill-rule="evenodd" clip-rule="evenodd" d="M469.535,357.858l-89.688-89.674c-11.009-11.009-28.845-11.009-39.854,0
			l-7.859,7.859l-21.978-21.978l39.428-39.436c10.997-11.003,9.757-30.097-1.252-41.1l-48.581-48.581
			c-10.994-11.011-28.845-11.011-39.855,0l-35.809,34.571l-18.888-18.882l1.273-1.274c11.009-11.011,11.009-28.851,0-39.862
			L116.798,9.822c-11.011-11.01-28.859-11.01-39.87,0L17.146,69.613c-11.009,11.003-11.009,28.851,0,39.854l89.688,89.688
			c11.009,11.003,28.845,11.003,39.855,0l19.603-19.605l19.426,19.579l-36.056,36.056c-11.011,11.009-6.854,72.252-6.854,72.252
			l24.276,24.276c0,0,61.255,4.154,72.264-6.842l31.172-31.171l21.977,21.979l-12.289,12.289c-11.009,11.011-11.009,28.847,0,39.855
			l89.674,89.687c11.011,11.011,28.847,11.011,39.855,0l59.797-59.795C480.546,386.718,480.546,368.869,469.535,357.858z
			 M27.109,99.503c-5.503-5.505-5.503-14.423,0-19.927l59.796-59.79c5.505-5.505,14.423-5.505,19.929,0L27.109,99.503l9.965,9.963
			l79.723-79.716l15.942,15.943l-5.979-5.979L47.038,119.43l1.777,1.778L27.109,99.503z M136.725,189.189
			c-5.503,5.508-14.421,5.508-19.927,0l-59.793-59.792l79.72-79.72l59.784,59.788c5.503,5.505,5.503,14.43,0,19.935L136.725,189.189
			z M176.484,263.962l-7.472-7.474l103.021-103.023l7.46,7.471L176.484,263.962z M359.922,427.619l79.709-79.724l-9.964-9.964
			l-79.709,79.722l-9.963-9.964l79.707-79.721l-9.964-9.964l-79.711,79.711l4.983,4.988l-44.839-44.846
			c-5.503-5.503-5.503-14.421,0-19.927l59.784-59.782c5.504-5.505,14.422-5.505,19.927,0l79.724,79.711l-79.723,79.723
			L359.922,427.619z M459.571,387.751l-59.796,59.796c-5.506,5.506-14.424,5.506-19.929,0l79.725-79.723
			C465.077,373.329,465.077,382.26,459.571,387.751z M8.682,325.477l156.944,156.944c0,0,37.459-88.944-15.276-141.682
			C98.205,288.594,8.682,325.477,8.682,325.477z M146.69,59.647l-79.711,79.717l9.963,9.963l79.711-79.715L146.69,59.647z
			 M310.101,377.787l9.964,9.964l79.711-79.709l-9.964-9.966L310.101,377.787z M379.847,288.113l-9.964-9.964l-79.711,79.709
			l9.966,9.966L379.847,288.113z M186.545,99.503l-79.711,79.717l9.963,9.969l79.711-79.723L186.545,99.503z M166.617,79.576
			l-79.711,79.715l9.965,9.965L176.58,89.54L166.617,79.576z"/>
	</g>
</g>
</svg>
