<?xml version="1.0" encoding="utf-8"?>
<!-- Generator: Adobe Illustrator 24.0.1, SVG Export Plug-In . SVG Version: 6.00 Build 0)  -->
<svg version="1.1" id="Layer_1" xmlns="http://www.w3.org/2000/svg" xmlns:xlink="http://www.w3.org/1999/xlink" x="0px" y="0px"
	 viewBox="0 0 364 364" style="enable-background:new 0 0 364 364;" xml:space="preserve">
<path d="M181.8,167.9c-9.3-380.4-396.1,8.1-9,14.1c0,0,0,0,0,0C-140.6,175.9,172.6-138.9,181.8,167.9z"/>
<path d="M182,172.9c0-1.7-0.1-3.4-0.1-5C181.9,169.5,181.9,171.2,182,172.9C181.9,172.9,181.9,172.9,182,172.9z"/>
<path d="M181.9,172.9c0-0.3,0-0.6,0-0.8C181.9,172.3,181.9,172.6,181.9,172.9C181.9,172.9,181.9,172.9,181.9,172.9z"/>
<path d="M181.9,172c-6.5-242.7-252.8,3.9-9,9.8c0,0,0,0,0,0C-23.5,175.9,175.4-23.3,181.9,172z"/>
<path d="M167.9,182.2c-380.4,9.3,8.1,396.1,14.1,9c0,0,0,0,0,0C175.9,504.6-138.9,191.4,167.9,182.2z"/>
<path d="M172.9,182c-1.7,0-3.4,0.1-5,0.1C169.5,182.1,171.2,182.1,172.9,182C172.9,182.1,172.9,182.1,172.9,182z"/>
<path d="M172,182.1c-242.7,6.5,3.9,252.8,9.8,9c0,0,0,0,0,0C175.9,387.5-23.3,188.6,172,182.1z"/>
<path d="M172.9,182.1c-0.3,0-0.6,0-0.8,0C172.3,182.1,172.6,182.1,172.9,182.1C172.9,182.1,172.9,182.1,172.9,182.1z"/>
<path d="M182,191.1c0,1.7,0.1,3.4,0.1,5C182.1,194.5,182.1,192.8,182,191.1C182.1,191.1,182.1,191.1,182,191.1z"/>
<path d="M191.1,182.1C191.1,182.1,191.1,182.1,191.1,182.1c313.5,6,0.3,320.8-9,14.1C191.5,576.6,578.3,188.1,191.1,182.1z"/>
<path d="M182.1,192c6.5,242.7,252.8-3.9,9-9.8c0,0,0,0,0,0C387.5,188.1,188.6,387.3,182.1,192z"/>
<path d="M182.1,191.1c0,0.3,0,0.6,0,0.8C182.1,191.7,182.1,191.4,182.1,191.1C182.1,191.1,182.1,191.1,182.1,191.1z"/>
<path d="M196.1,181.8c380.4-9.3-8.1-396.1-14.1-9c0,0,0,0,0,0C188.1-140.6,502.9,172.6,196.1,181.8z"/>
<path d="M191.1,182c1.7,0,3.4-0.1,5-0.1C194.5,181.9,192.8,181.9,191.1,182C191.1,181.9,191.1,181.9,191.1,182z"/>
<path d="M192,181.9c242.7-6.5-3.9-252.8-9.8-9c0,0,0,0,0,0C188.1-23.5,387.3,175.4,192,181.9z"/>
<path d="M191.1,181.9c0.3,0,0.6,0,0.8,0C191.7,181.9,191.4,181.9,191.1,181.9C191.1,181.9,191.1,181.9,191.1,181.9z"/>
</svg>
