<?xml version="1.0" encoding="utf-8"?>


<svg xmlns="http://www.w3.org/2000/svg" xmlns:xlink="http://www.w3.org/1999/xlink" version="1.1" viewBox="2.551 8.163 506.815 485.866" preserveAspectRatio="xMidyMid meet">
<path d="M2.551,225.279l20.44-20.589c9.587,14.737,22.154,22.105,37.701,22.105c14.838,0,28.791-6.184,41.863-18.55
	c13.07-12.363,28.693-34.292,46.862-65.785l65.255-112.777c-11.002-1.312-20.44-1.972-28.313-1.972
	c-21.097,0-37.375,5.281-48.828,15.84c-11.458,10.557-17.185,25.637-17.185,45.24L90.67,103.494
	c1.915-18.994,7.215-34.705,15.897-47.133c9.589-13.844,20.894-23.694,33.914-29.557c13.023-5.86,31.896-9.649,56.627-11.366
	c4.944-0.305,12.415-0.859,22.41-1.668l30.885-5.607l1.97,50.453l8.779,104.695c2.02,24.343,4.871,40.382,8.555,48.109
	c3.684,7.726,10.32,11.589,19.91,11.589c1.717,0,7.621-0.302,17.716-0.907l-1.967,9.991l-69.497,11.508l-6.208-74.645h-82.517
	c-15.949,27.658-31.04,47.014-45.272,58.064c-14.232,11.055-31.189,16.58-50.871,16.58C32.325,243.601,16.178,237.496,2.551,225.279
	z M153.654,157.753h74.948l-9.69-113.823L153.654,157.753z"/>
<path opacity="0.75" d="M509.366,63.418v64.92h-4.551c-2.231-17.391-7.332-29.676-15.322-36.86
	c-7.99-7.175-19.77-10.767-35.342-10.767H415.32v210.838c0,9.297,0.653,16.633,1.976,21.99c1.313,5.355,3.185,9.361,5.612,11.984
	c2.422,2.625,5.46,4.301,9.101,5.008c3.637,0.709,7.887,1.057,12.736,1.057h9.406v7.588H337.358v-7.588h9.705
	c4.855,0,9.102-0.402,12.742-1.209c3.643-0.805,6.674-2.58,9.102-5.313s4.295-6.717,5.611-11.984
	c1.313-5.26,1.971-12.434,1.971-21.533V80.711h-33.066c-8.295,0-15.622,0.658-21.99,1.97c-6.374,1.317-11.888,3.745-16.536,7.283
	c-4.653,3.538-8.345,8.394-11.071,14.561c-2.732,6.172-4.398,14.103-5.008,23.813h-7.582v-64.92H509.366z"/>
<path opacity="0.5" d="M219.499,209.694l-39.994,69.271h49.287l-9.352,16.197h-49.287L90.956,432.337
	c-3.985,6.902-6.778,12.641-8.402,17.242c-1.616,4.588-2.182,8.148-1.679,10.674c0.484,2.535,1.695,4.314,3.631,5.342
	c1.93,1.039,4.387,1.559,7.375,1.559c5.28,0,11.177-1.559,17.675-4.65c6.505-3.105,12.809-7.756,18.921-13.965h8.961
	c-14.042,15.164-28.194,26.543-42.446,34.123c-14.259,7.582-26.673,11.367-37.241,11.367c-12.183,0-19.493-4.242-21.932-12.752
	c-2.454-8.496,2.299-23.09,14.238-43.77l82.182-142.344H98.468l4.374-7.575c16.01-5.054,32.793-13.729,50.347-26.023
	c17.552-12.287,37.247-29.584,59.074-51.87H219.499z"/>
<path d="M340.408,481.527v-5.398c-5.777,3.076-12.152,5.382-19.125,6.916c-6.977,1.538-13.315,2.31-19.017,2.31
	c-12.375,0-22.428-3.282-30.151-9.848c-7.729-6.561-11.592-13.815-11.592-21.77c0-9.674,4.934-18.657,14.797-26.946
	c9.864-8.289,23.494-12.432,40.899-12.432c6.973,0,15.036,0.751,24.188,2.249v-5.511c0-3.452-1.481-6.262-4.445-8.442
	c-2.963-2.172-8.607-3.263-16.933-3.263c-6.823,0-15.678,1.353-26.551,4.054c-4.054,0.974-7.202,1.462-9.451,1.462
	c-3.077,0-5.681-1.106-7.82-3.318c-2.136-2.213-3.206-5.043-3.206-8.495c0-1.95,0.375-3.638,1.126-5.063
	c0.747-1.425,1.797-2.567,3.149-3.432c1.349-0.864,4.163-1.894,8.438-3.097c5.697-1.574,11.511-2.83,17.438-3.767
	s11.289-1.405,16.09-1.405c14.324,0,25.443,3.093,33.361,9.282c7.913,6.186,11.87,14.644,11.87,25.371v47.48h3.937
	c5.552,0,9.508,1.066,11.87,3.206c2.361,2.136,3.545,4.934,3.545,8.382c0,3.375-1.184,6.133-3.545,8.269
	c-2.362,2.14-6.318,3.206-11.87,3.206H340.408z M340.408,440.236c-9.226-1.801-17.74-2.701-25.541-2.701
	c-9.375,0-17.438,2.289-24.188,6.863c-4.202,2.927-6.302,5.891-6.302,8.891c0,2.176,1.013,3.937,3.04,5.285
	c3.747,2.475,8.887,3.714,15.411,3.714c5.551,0,11.834-1.086,18.847-3.262c7.013-2.177,13.259-5.136,18.733-8.891V440.236z"/>
</svg>
