<?xml version="1.0" encoding="utf-8"?>

<svg xmlns="http://www.w3.org/2000/svg" xmlns:xlink="http://www.w3.org/1999/xlink" version="1.1" viewBox="0 0 512.001 512.001" preserveAspectRatio="xMidyMid meet">
<path fill="#010101" d="M425.425,277.424c0,4.449-3.64,8.086-8.085,8.086H297.769c-4.446,0-8.084-3.637-8.084-8.086v-3.918
	c0-4.447,3.638-8.084,8.084-8.084H417.34c4.445,0,8.085,3.637,8.085,8.084V277.424z"/>
<path fill="#010101" d="M439.282,316.852c0,4.447-3.64,8.084-8.086,8.084H283.917c-4.448,0-8.085-3.637-8.085-8.084v-4.609
	c0-4.447,3.637-8.086,8.085-8.086h147.279c4.446,0,8.086,3.639,8.086,8.086V316.852z"/>
<path fill="none" d="M32.776,157.479l86.158,18.139c3.343-15.962,11.877-30.016,23.754-40.319L85.035,68.774
	C58.906,91.438,40.129,122.358,32.776,157.479z"/>
<path fill="none" d="M234.75,190.735c0-24.306-19.709-44.016-44.015-44.016c-24.311,0-44.016,19.709-44.016,44.016
	s19.705,44.015,44.016,44.015C215.041,234.75,234.75,215.041,234.75,190.735z"/>
<path fill="#010101" d="M224.238,255.549l24.623-50.092c2.158-4.388,7.926-7.981,12.818-7.981h119.665
	c0.077-2.238,0.131-4.483,0.131-6.74C381.475,85.393,296.068,0,190.735,0C85.397,0,0,85.393,0,190.735
	C0,294.41,82.718,378.768,185.753,381.409v-38.671c0-4.892,1.765-12.488,3.921-16.876l29.346-59.699 M118.934,175.618
	l-86.158-18.139c7.353-35.12,26.13-66.041,52.259-88.704l57.653,66.524C130.811,145.602,122.277,159.655,118.934,175.618z
	 M146.719,190.735c0-24.306,19.705-44.016,44.016-44.016c24.306,0,44.015,19.709,44.015,44.016s-19.709,44.015-44.015,44.015
	C166.424,234.75,146.719,215.041,146.719,190.735z"/>
<path fill="#010101" d="M454.596,222.126c-1.971-3.985-7.225-7.244-11.67-7.244H272.133c-4.447,0-9.69,3.267-11.652,7.256
	l-53.806,109.46c-1.961,3.988-3.564,10.895-3.564,15.342v156.975c0,4.449,3.637,8.086,8.084,8.086h292.721
	c4.445,0,8.085-3.637,8.085-8.086v-157.67c0-4.447-1.61-11.348-3.585-15.328L454.596,222.126z M468.369,428.426
	c0,4.445-3.641,8.084-8.085,8.084H433.51c-4.444,0-8.085-3.639-8.085-8.084V401.65c0-4.447,3.641-8.084,8.085-8.084h26.774
	c4.444,0,8.085,3.637,8.085,8.084V428.426z M254.135,341.623c-4.446,0-6.662-3.352-4.927-7.441l32.469-76.533
	c1.738-4.096,6.796-7.442,11.243-7.442h128.573c4.445,0,9.586,3.31,11.434,7.36l34.865,76.701c1.841,4.045-0.291,7.359-4.737,7.359
	h-208.92V341.623z"/>
</svg>
