<?xml version="1.0" encoding="utf-8"?>

<svg xmlns="http://www.w3.org/2000/svg" xmlns:xlink="http://www.w3.org/1999/xlink" version="1.1" viewBox="19 19 38 38" preserveAspectRatio="xMidyMid meet">
<path d="M19,19h38v38H19V19z M26.917,23.75v12.667h22.167V23.75H26.917z M26.917,39.584V52.25h22.167V39.584H26.917z M22.958,22.167
	c-1.312,0-2.375,1.063-2.375,2.375c0,1.312,1.063,2.375,2.375,2.375c1.312,0,2.375-1.063,2.375-2.375
	C25.333,23.23,24.27,22.167,22.958,22.167z M22.958,49.084c-1.312,0-2.375,1.063-2.375,2.375c0,1.311,1.063,2.375,2.375,2.375
	c1.312,0,2.375-1.064,2.375-2.375C25.333,50.146,24.27,49.084,22.958,49.084z M22.958,42.354c-1.312,0-2.375,1.064-2.375,2.375
	c0,1.313,1.063,2.375,2.375,2.375c1.312,0,2.375-1.063,2.375-2.375C25.333,43.418,24.27,42.354,22.958,42.354z M22.958,35.625
	c-1.312,0-2.375,1.063-2.375,2.375s1.063,2.375,2.375,2.375c1.312,0,2.375-1.063,2.375-2.375S24.27,35.625,22.958,35.625z
	 M22.958,28.896c-1.312,0-2.375,1.063-2.375,2.375c0,1.312,1.063,2.375,2.375,2.375c1.312,0,2.375-1.063,2.375-2.375
	C25.333,29.959,24.27,28.896,22.958,28.896z M53.041,22.167c-1.311,0-2.375,1.063-2.375,2.375c0,1.312,1.064,2.375,2.375,2.375
	c1.313,0,2.375-1.063,2.375-2.375C55.416,23.23,54.354,22.167,53.041,22.167z M53.041,49.084c-1.311,0-2.375,1.063-2.375,2.375
	c0,1.311,1.064,2.375,2.375,2.375c1.313,0,2.375-1.064,2.375-2.375C55.416,50.146,54.354,49.084,53.041,49.084z M53.041,42.354
	c-1.311,0-2.375,1.064-2.375,2.375c0,1.313,1.064,2.375,2.375,2.375c1.313,0,2.375-1.063,2.375-2.375
	C55.416,43.418,54.354,42.354,53.041,42.354z M53.041,35.625c-1.311,0-2.375,1.063-2.375,2.375s1.064,2.375,2.375,2.375
	c1.313,0,2.375-1.063,2.375-2.375S54.354,35.625,53.041,35.625z M53.041,28.896c-1.311,0-2.375,1.063-2.375,2.375
	c0,1.312,1.064,2.375,2.375,2.375c1.313,0,2.375-1.063,2.375-2.375C55.416,29.959,54.354,28.896,53.041,28.896z"/>
</svg>
