<?xml version="1.0" encoding="utf-8"?>

<svg xmlns="http://www.w3.org/2000/svg" xmlns:xlink="http://www.w3.org/1999/xlink" version="1.1"
  viewBox="16 16 43.00 41.00" preserveAspectRatio="xMidyMid meet">
  <path fill="#000000" fill-opacity="1"
    d="M 27,48C 27,50 26.5,53 25.5,53L 52,53C 54.5,53 55,50.5 55,48L 55,25L 27,25L 27,48 Z M 59,48C 59,52.3723 56,57 52.5,57L 21,57C 18.3766,57 16,52.8723 16,48.5L 16,27L 23,27L 23,21L 59,21L 59,48 Z M 20,31L 20,49C 20,51.6234 20.6255,53.25 21.5,53.25C 22.3744,53.25 23,51.6234 23,49L 23,31L 20,31 Z M 41,34L 53,34L 53,48L 41,48L 41,34 Z M 29,28L 53,28L 53,31L 29,31L 29,28 Z M 29,34L 39,34L 39,36L 29,36L 29,34 Z M 29,38L 39,38L 39,40L 29,40L 29,38 Z M 29,42L 39,42L 39,44L 29,44L 29,42 Z M 29,46L 39,46L 39,48L 29,48L 29,46 Z "/>
</svg>
