<?xml version="1.0" encoding="utf-8"?>


<svg xmlns="http://www.w3.org/2000/svg" xmlns:xlink="http://www.w3.org/1999/xlink" version="1.1" viewBox="0.21 0.866 74.924 74.924" preserveAspectRatio="xMidyMid meet">
<path d="M47.126,0.866c15.471,0,28.008,12.539,28.008,28.008c0,15.469-12.537,28.008-28.008,28.008
	c-5.297,0-10.252-1.471-14.563-3.939L12.342,73.165c-2.626,2.625-6.882,2.625-9.506,0c-2.626-2.626-2.626-6.879,0-9.506
	l20.31-20.309c-2.555-4.224-4.027-9.18-4.027-14.477C19.119,13.405,31.658,0.866,47.126,0.866z M47.126,9.829
	c-10.518,0-19.044,8.527-19.044,19.045c0,10.518,8.527,19.045,19.044,19.045c10.519,0,19.045-8.527,19.045-19.045
	C66.171,18.356,57.645,9.829,47.126,9.829z"/>
<path opacity="0.48" d="M39.54,47.092c-4.32,6.118-1.024,12.97-0.581,10.695c2.442-13.629,2.429-23.464,1.554-30.336
	C29.109,21.306,22.065,9.379,29.921,7.808c6.095-1.219,6.563,4.765,6.563,4.765s-4.107-5.107-6.641-2.32
	c-0.621,0.639,2.815,8.152,9.947,12.903c-1.465-6.83-3.678-9.467-3.678-9.467s5.923-1.879,7.988,11.75
	c1.05,0.422,2.151,0.772,3.311,1.037c1.808,0.534,3.517,0.903,5.125,1.142c2.429-3.068,5.015-5.806,7.425-7.312
	c7.681-4.8,12.231,2.936,12.231,2.936c-4.105-2.764-9.526,0.156-14.591,4.709c9.138-0.166,13.854-4.66,13.854-4.66
	c2.311,4.957-4.837,10.009-17.537,8.299c-3.799,4.066-7.108,8.531-9.093,11.366c-0.413,14.816-3.339,23.776-8.511,18.435
	C29.762,54.619,39.54,47.092,39.54,47.092z M46.527,29.965l-1.988-0.674l0.176,2.83c0.099,2.3,0.151,4.527,0.157,6.661
	c1.373-2.229,3.18-5.065,5.201-7.884C48.926,30.639,47.742,30.329,46.527,29.965z"/>
</svg>
