<?xml version="1.0" encoding="utf-8"?>

<svg xmlns="http://www.w3.org/2000/svg" xmlns:xlink="http://www.w3.org/1999/xlink" version="1.1" viewBox="0.193 0.194 76.119 76.119" preserveAspectRatio="xMidyMid meet">
<path d="M17.076,5.608l11.089-4.937l3.538,7.946c3.86-0.858,7.775-0.931,11.542-0.299l3.116-8.124l11.333,4.35l-3.117,8.124
	c3.221,2.052,6.08,4.727,8.377,7.946l7.945-3.538l4.939,11.089l-7.947,3.538c0.856,3.86,0.931,7.775,0.297,11.542l8.124,3.117
	l-4.35,11.333l-8.123-3.117c-2.052,3.221-4.727,6.08-7.944,8.375l3.538,7.947l-11.09,4.939l-3.539-7.947
	c-3.86,0.856-7.772,0.931-11.542,0.297l-3.118,8.124l-11.333-4.35l3.118-8.123c-3.222-2.052-6.082-4.727-8.375-7.944l-7.947,3.538
	l-4.937-11.09l7.946-3.539c-0.858-3.86-0.931-7.772-0.299-11.542l-8.124-3.118l4.35-11.333l8.125,3.118
	c2.051-3.222,4.726-6.082,7.945-8.376L17.076,5.608z M30.849,21.622c-9.187,4.088-13.318,14.852-9.227,24.036
	c4.088,9.186,14.852,13.32,24.036,9.229c9.188-4.09,13.32-14.851,9.229-24.038C50.797,21.662,40.036,17.531,30.849,21.622z"/>
<path d="M37.706,47.088c1.514,0,2.741,1.229,2.741,2.742s-1.227,2.74-2.741,2.74s-2.741-1.227-2.741-2.74
	S36.191,47.088,37.706,47.088z M38.254,25.158c4.845,0,8.771,3.134,8.771,7.676c0,1.645-1.096,4.386-3.289,5.483
	c-2.193,1.096-3.29,2.568-3.29,4.385v2.193h-5.482V43.25c0-3.729,3.29-6.031,4.386-7.127c2.192-2.192,2.192-2.497,2.192-3.289
	c0-1.817-1.473-3.29-3.289-3.29c-1.817,0-3.29,1.473-3.29,3.29v1.645h-5.482v-1.097C29.482,28.84,33.409,25.158,38.254,25.158z"/>
</svg>
