<?xml version="1.0" encoding="utf-8"?>


<svg xmlns="http://www.w3.org/2000/svg" xmlns:xlink="http://www.w3.org/1999/xlink" version="1.1" viewBox="0.21 0.866 74.924 74.924" preserveAspectRatio="xMidyMid meet">
<path d="M47.126,0.866c15.471,0,28.008,12.539,28.008,28.008c0,15.469-12.537,28.008-28.008,28.008
	c-5.297,0-10.252-1.471-14.563-3.939L12.342,73.165c-2.626,2.625-6.882,2.625-9.506,0c-2.626-2.626-2.626-6.879,0-9.506
	l20.31-20.309c-2.555-4.224-4.027-9.18-4.027-14.477C19.119,13.405,31.658,0.866,47.126,0.866z M47.126,9.829
	c-10.518,0-19.044,8.527-19.044,19.045c0,10.518,8.527,19.045,19.044,19.045c10.519,0,19.045-8.527,19.045-19.045
	C66.171,18.356,57.645,9.829,47.126,9.829z"/>
<path opacity="0.65" d="M34.896,15.686v3.163h19.769v-3.163H34.896z M34.896,20.43v3.163h23.722V20.43H34.896z M34.896,25.175v3.163
	h18.978v-3.163H34.896z M34.896,29.919v3.163h26.094v-3.163H34.896z M34.896,34.664v3.162h21.351v-3.162H34.896z M34.896,39.406
	v3.164h25.303v-3.164H34.896z"/>
</svg>
