<?xml version="1.0" encoding="utf-8"?>

<svg xmlns="http://www.w3.org/2000/svg" xmlns:xlink="http://www.w3.org/1999/xlink" version="1.1" viewBox="42.836 0 440.327 512" preserveAspectRatio="xMidyMid meet">
<path fill="#231F20" d="M339.99,0H42.836v512h440.327V143.662L339.99,0z M416.716,251.842l-17.767,17.763l-17.767-17.763
	L272.625,407.764c0,0-102.627-7.893-165.79,55.27l-3.946-3.953l103.781-103.777c8.129,3.443,19.856,3.828,26.482-2.796
	c8.717-8.726,8.717-22.862,0-31.58c-8.719-8.726-22.856-8.726-31.578,0c-6.625,6.624-8.219,16.375-4.772,24.508L93.022,449.219
	l-1.977-1.976c63.162-63.163,55.267-165.797,55.267-165.797l155.925-108.554l-17.767-17.764l17.767-17.763l9.868,9.868
	l27.084-36.105c21.5,11.263,41.691,25.927,59.761,44c18.069,18.07,32.737,38.258,44.004,59.764l-36.112,27.081L416.716,251.842z"/>
</svg>
