<?xml version="1.0" encoding="utf-8"?>

<svg xmlns="http://www.w3.org/2000/svg" xmlns:xlink="http://www.w3.org/1999/xlink" version="1.1" viewBox="0 0 512 512" preserveAspectRatio="xMidyMid meet">
<path d="M189.03,0C84.632,0,0,84.632,0,189.03C0,293.43,84.632,378.063,189.03,378.063c104.397,0,189.03-84.633,189.03-189.032
	C378.061,84.632,293.428,0,189.03,0z M309.555,268.816c5.623,5.625,5.623,14.745,0,20.369l-20.368,20.367
	c-5.626,5.627-14.745,5.627-20.37,0l-78.081-78.08l-78.081,78.082c-5.625,5.625-14.744,5.625-20.369,0l-20.369-20.369
	c-5.625-5.624-5.625-14.744,0-20.369l78.081-78.081l-78.081-78.082c-5.625-5.625-5.625-14.744,0-20.369l20.369-20.369
	c2.813-2.813,6.499-4.219,10.185-4.219c3.687,0,7.372,1.406,10.185,4.219l78.081,78.081l78.082-78.081
	c2.812-2.812,6.497-4.219,10.185-4.219c3.686,0,7.371,1.407,10.185,4.219l20.368,20.37c5.623,5.624,5.623,14.744,0,20.368
	l-78.082,78.082L309.555,268.816z"/>
<path fill="none" d="M460.284,393.566H433.51c-4.444,0-8.085,3.637-8.085,8.084v26.775c0,4.445,3.641,8.084,8.085,8.084h26.774
	c4.444,0,8.085-3.639,8.085-8.084V401.65C468.369,397.203,464.729,393.566,460.284,393.566z"/>
<path fill="none" d="M417.34,265.422c4.445,0,8.085,3.637,8.085,8.084v3.918c0,4.449-3.64,8.086-8.085,8.086h-37.786
	c-3.251,6.407-6.809,12.632-10.667,18.646h62.31c4.446,0,8.086,3.639,8.086,8.086v4.609c0,4.447-3.64,8.084-8.086,8.084h-77.475
	c-4.821,5.836-9.956,11.401-15.361,16.691h124.694c4.446,0,6.578-3.314,4.737-7.359l-34.865-76.701
	c-1.848-4.05-6.988-7.36-11.434-7.36h-27.852c-1.54,5.156-3.268,10.231-5.178,15.215H417.34z"/>
<path fill="#010101" d="M425.425,277.424v-3.918c0-4.447-3.64-8.084-8.085-8.084h-28.876c-2.635,6.873-5.607,13.578-8.91,20.088
	h37.786C421.785,285.51,425.425,281.873,425.425,277.424z"/>
<path fill="#010101" d="M439.282,316.852v-4.609c0-4.447-3.64-8.086-8.086-8.086h-62.31c-4.642,7.237-9.709,14.175-15.165,20.779
	h77.475C435.643,324.936,439.282,321.299,439.282,316.852z"/>
<path fill="#010101" d="M508.415,330.916l-53.819-108.79c-1.971-3.985-7.225-7.244-11.67-7.244h-41.937
	c-1.463,12.118-3.943,23.92-7.348,35.325h27.852c4.445,0,9.586,3.31,11.434,7.36l34.865,76.701c1.841,4.045-0.291,7.359-4.737,7.359
	H338.36c-35.369,34.616-82.716,57.031-135.25,60.452v101.835c0,4.449,3.637,8.086,8.084,8.086h292.721
	c4.445,0,8.085-3.637,8.085-8.086v-157.67C512,341.797,510.39,334.896,508.415,330.916z M468.369,428.426
	c0,4.445-3.641,8.084-8.085,8.084H433.51c-4.444,0-8.085-3.639-8.085-8.084V401.65c0-4.447,3.641-8.084,8.085-8.084h26.774
	c4.444,0,8.085,3.637,8.085,8.084V428.426z"/>
</svg>
