<?xml version="1.0" encoding="utf-8"?>

<svg xmlns="http://www.w3.org/2000/svg" xmlns:xlink="http://www.w3.org/1999/xlink" version="1.1" viewBox="0 5.429 76 65.143" preserveAspectRatio="xMidyMid meet">
<g>
	<path fill="none" d="M20.255,28.576c0-4.673-1.668-8.953-4.435-12.29H5.428v31.042C13.929,45.319,20.255,37.69,20.255,28.576z"/>
	<path fill="none" d="M47.41,63.961l-5.121,0.469c-0.401-1.254-0.701-2.559-0.883-3.9l4.823-1.788l-0.049-1.318
		c0-1.569,0.201-3.085,0.578-4.534l-4.422-2.629c0.42-1.281,0.949-2.508,1.577-3.677l4.953,1.389
		c1.041-1.679,2.353-3.173,3.872-4.421l-2.029-4.725c1.075-0.781,2.226-1.467,3.433-2.054l3.192,4.033
		c1.783-0.729,3.714-1.18,5.729-1.297l1.135-5.016c1.36,0.005,2.692,0.128,3.986,0.359l0.209,5.138
		c0.745,0.182,1.471,0.412,2.178,0.685V16.286H27.158c0.27,0.572,0.521,1.155,0.754,1.748l8.254-0.759
		c0.649,2.025,1.129,4.127,1.422,6.286l-7.773,2.884l0.079,2.13c0,2.522-0.323,4.972-0.932,7.305l7.125,4.238
		c-0.677,2.059-1.529,4.042-2.541,5.923l-7.983-2.24c-1.678,2.708-3.792,5.115-6.241,7.127l3.273,7.617
		c-1.736,1.252-3.589,2.367-5.536,3.308l-5.14-6.501c-2.056,0.838-4.231,1.438-6.492,1.786v8.006h42.545
		C47.784,64.749,47.57,64.369,47.41,63.961z"/>
	<path fill="none" d="M64.122,45.459c-6.604,0-11.96,5.355-11.96,11.964c0,2.94,1.072,5.635,2.836,7.721h15.574v-17.8
		C68.71,46.152,66.497,45.459,64.122,45.459z"/>
	<path d="M0,5.429v65.143h76V5.429H0z M15.82,16.286c2.767,3.337,4.435,7.616,4.435,12.29c0,9.114-6.327,16.744-14.827,18.752
		V16.286H15.82z M5.428,57.138c2.261-0.349,4.436-0.948,6.492-1.786l5.14,6.501c1.946-0.94,3.8-2.056,5.536-3.308l-3.273-7.617
		c2.449-2.012,4.563-4.419,6.241-7.127l7.983,2.24c1.012-1.881,1.864-3.864,2.541-5.923l-7.125-4.238
		c0.609-2.333,0.932-4.783,0.932-7.305l-0.079-2.13l7.773-2.884c-0.292-2.159-0.772-4.26-1.422-6.286l-8.254,0.759
		c-0.233-0.593-0.485-1.176-0.754-1.748h43.415v24.389c-0.707-0.272-1.433-0.503-2.178-0.685l-0.209-5.138
		c-1.294-0.231-2.626-0.354-3.986-0.359l-1.135,5.016c-2.016,0.117-3.946,0.567-5.729,1.297l-3.192-4.033
		c-1.207,0.586-2.357,1.272-3.433,2.054l2.029,4.725c-1.52,1.248-2.831,2.742-3.872,4.421l-4.953-1.389
		c-0.628,1.169-1.157,2.396-1.577,3.677l4.422,2.629c-0.377,1.449-0.578,2.965-0.578,4.534l0.049,1.318l-4.823,1.788
		c0.182,1.342,0.481,2.646,0.883,3.9l5.121-0.469c0.16,0.408,0.374,0.788,0.563,1.183H5.428V57.138z M54.998,65.144
		c-1.764-2.086-2.836-4.78-2.836-7.721c0-6.608,5.356-11.964,11.96-11.964c2.375,0,4.588,0.693,6.45,1.885v17.8H54.998z"/>
</g>
</svg>
