<?xml version="1.0" encoding="utf-8"?>

<svg xmlns="http://www.w3.org/2000/svg" xmlns:xlink="http://www.w3.org/1999/xlink" version="1.1" viewBox="0.318 7.395 75.222 63.939" preserveAspectRatio="xMidyMid meet">
<path d="M4.079,7.395h67.7c2.077,0,3.761,1.684,3.761,3.761v39.492c0,2.077-1.684,3.761-3.761,3.761H43.571v9.403h7.521
	c2.077,0,3.761,1.684,3.761,3.761v3.761H21.004v-3.761c0-2.077,1.684-3.761,3.761-3.761h7.521v-9.403H4.079
	c-2.077,0-3.761-1.684-3.761-3.761V11.155C0.318,9.078,2.002,7.395,4.079,7.395z M5.96,13.036v35.73h63.938v-35.73H5.96z"/>
<path d="M30.63,19.808l3.859-1.718l1.231,2.766c1.343-0.298,2.705-0.324,4.016-0.104l1.085-2.827l3.943,1.514l-1.085,2.827
	c1.121,0.714,2.116,1.645,2.915,2.765l2.765-1.231l1.719,3.859l-2.766,1.231c0.299,1.343,0.324,2.705,0.104,4.016l2.827,1.085
	l-1.513,3.943l-2.828-1.085c-0.714,1.121-1.645,2.116-2.764,2.915l1.23,2.765l-3.858,1.719l-1.231-2.766
	c-1.343,0.299-2.705,0.324-4.016,0.104l-1.085,2.827l-3.943-1.513l1.085-2.827c-1.122-0.715-2.116-1.646-2.915-2.765l-2.765,1.23
	l-1.718-3.858l2.766-1.231c-0.298-1.344-0.324-2.706-0.104-4.016l-2.827-1.085l1.514-3.943l2.827,1.085
	c0.713-1.122,1.645-2.117,2.765-2.915L30.63,19.808z M35.423,25.38c-3.196,1.423-4.634,5.168-3.211,8.364
	c1.424,3.197,5.168,4.634,8.364,3.211c3.197-1.423,4.635-5.168,3.212-8.365C42.364,25.394,38.62,23.957,35.423,25.38z"/>
</svg>
