<?xml version="1.0" encoding="utf-8"?>

<svg xmlns="http://www.w3.org/2000/svg" xmlns:xlink="http://www.w3.org/1999/xlink" version="1.1" viewBox="42.836 0 440.327 512" preserveAspectRatio="xMidyMid meet">
<path fill="#231F20" d="M339.99,0H42.836v512h440.327V143.662L339.99,0z M398.384,437.955
	c-26.101-52.798-88.081-101.187-88.081-101.187c-65.252,13.198-120.705-22.015-120.705-39.6c52.201,0,42.414-30.805,42.414-30.805
	s-42.414-4.401-68.508-13.2c26.094-35.196,19.574-39.597,19.574-39.597c-26.109,17.6-84.83-4.402-71.775-21.997
	c9.223-12.447,42.414-4.402,29.359-22.003c-13.055-17.595-29.359,4.402-42.414-13.2c-13.039-17.595-13.039-35.195,0-52.796
	c156.59,0,339.283,351.989,339.283,351.989L398.384,437.955z"/>
</svg>
