<?xml version="1.0" encoding="utf-8"?>

<svg xmlns="http://www.w3.org/2000/svg" xmlns:xlink="http://www.w3.org/1999/xlink" version="1.1" viewBox="17.4167 19 39.5833 39.5833" preserveAspectRatio="xMidyMid meet">
	<path d="M 17.4167,53.8333L 17.4167,49.0833L 22.1667,49.0833L 22.1667,28.5L 17.4167,28.5L 17.4167,23.75L 22.1667,23.75L 22.1667,19L 26.9167,19L 26.9167,23.75L 48.6875,23.75L 53.4375,19L 57,22.5625L 52.25,27.3125L 52.25,49.0833L 57,49.0833L 57,53.8333L 52.25,53.8333L 52.25,58.5833L 47.5,58.5833L 47.5,53.8333L 26.9167,53.8333L 26.9167,58.5833L 22.1667,58.5833L 22.1667,53.8333L 17.4167,53.8333 Z M 30.4792,49.0833L 47.5,49.0833L 47.5,32.0625L 30.4792,49.0833 Z M 26.9167,45.5208L 43.9375,28.5L 26.9167,28.5L 26.9167,45.5208 Z "/>
</svg>
