<?xml version="1.0" encoding="utf-8"?>

<svg xmlns="http://www.w3.org/2000/svg" xmlns:xlink="http://www.w3.org/1999/xlink" version="1.1" viewBox="1.84 143.661 613.448 523.041" preserveAspectRatio="xMidyMid meet">
<polygon points="557.825,399.517 384.169,573.181 312.017,594.364 305.054,587.401 324.866,513.878 498.529,340.214 "/>
<path d="M511.238,327.512l29.646-33.885c10.867-10.868,31.492-6.634,42.359,4.234l16.943,16.943
	c10.867,10.868,15.102,33.96,4.234,44.827l-33.887,27.185L511.238,327.512z"/>
<polygon fill="none" points="302.601,208.405 302.601,291.791 385.972,291.791 "/>
<rect x="74.686" y="218.137" fill="none" width="151.725" height="65.308"/>
<rect x="74.686" y="303.61" fill="none" width="151.725" height="40.3"/>
<rect x="74.686" y="365.446" fill="none" width="302.94" height="39.735"/>
<path d="M390.976,591.569l-101.612,29.832l-9.805-9.805l5.105-18.945H74.686v-38.197h220.271l6.558-24.338H74.686v-37.527h248.241
	l24.307-24.309H74.686v-40.998h302.94v10.607l73.35-73.35v-72.048L302.601,143.661H1.84v523.041h449.136V531.567L390.976,591.569z
	 M302.601,291.791v-83.386l83.371,83.386H302.601L302.601,291.791L302.601,291.791z M74.686,218.137h151.725v65.308H74.686V218.137z
	 M74.686,303.61h151.725v40.3H74.686V303.61z M74.686,365.446h302.94v39.735H74.686V365.446z"/>
</svg>
