<?xml version="1.0" encoding="utf-8"?>

<svg xmlns="http://www.w3.org/2000/svg" xmlns:xlink="http://www.w3.org/1999/xlink" version="1.1" viewBox="-0.673 -0.049 76.722 76.72" preserveAspectRatio="xMidyMid meet">
<path d="M47.37-0.049c15.84,0,28.679,12.84,28.679,28.679c0,15.841-12.839,28.68-28.679,28.68c-5.425,0-10.499-1.507-14.914-4.033
	L11.75,73.983c-2.688,2.688-7.047,2.688-9.734,0c-2.689-2.688-2.689-7.045,0-9.733l20.796-20.796
	c-2.615-4.324-4.122-9.399-4.122-14.824C18.691,12.791,31.531-0.049,47.37-0.049z M47.37,9.128
	c-10.771,0-19.502,8.732-19.502,19.501c0,10.771,8.731,19.503,19.502,19.503c10.771,0,19.502-8.732,19.502-19.503
	C66.872,17.86,58.141,9.128,47.37,9.128z"/>
<polygon points="59.861,32.257 59.861,28.95 56.44,32.257 53.191,32.257 56.124,29.521 37.604,29.521 40.534,32.257 37.288,32.257 
	33.867,28.95 33.867,32.257 31.815,32.257 31.815,24.049 33.867,24.049 33.867,27.354 37.288,24.049 40.534,24.049 37.604,26.784 
	56.124,26.784 53.191,24.049 56.44,24.049 59.861,27.355 59.861,24.049 61.911,24.049 61.911,32.257 "/>
</svg>
