<?xml version="1.0" encoding="utf-8"?>

<svg xmlns="http://www.w3.org/2000/svg" xmlns:xlink="http://www.w3.org/1999/xlink" version="1.1" viewBox="-2.947 -37.053 632.415 814.053" preserveAspectRatio="xMidyMid meet">
<path d="M487.365,289.83c30.839-75.185,112.281-107.938,105.017-195.453c-4.535-54.629-172.155-131.43-344.228-40.997
	C93.215,134.808,2.93,249.515,0.067,426.937C-2.947,613.637,96.46,777,329.836,777c169.197,0,268.383-78.764,280.049-189.618
	C629.468,401.323,440.688,403.6,487.365,289.83z M270.612,181.892c50.192,0,90.873,31.999,90.873,71.471
	c0,39.474-40.681,71.471-90.873,71.471c-50.185,0-90.871-31.997-90.871-71.471C179.741,213.891,220.427,181.892,270.612,181.892z
	 M98.499,426.937c0-21.046,38.53-38.106,86.057-38.106c47.526,0,86.056,17.06,86.056,38.106c0,21.048-38.53,38.106-86.056,38.106
	C137.029,465.043,98.499,447.984,98.499,426.937z M329.836,686.566c-74.112,0-134.192-39.182-134.192-87.515
	c0-48.334,60.081-87.516,134.192-87.516c74.109,0,134.189,39.182,134.189,87.516C464.025,647.385,403.945,686.566,329.836,686.566z
	 M422.307,181.892c-33.587,0-60.821-19.59-60.821-43.758c0-24.166,27.234-43.757,60.821-43.757
	c33.595,0,60.825,19.592,60.825,43.757C483.132,162.302,455.901,181.892,422.307,181.892z"/>
</svg>
