<?xml version="1.0" encoding="utf-8"?>

<svg xmlns="http://www.w3.org/2000/svg" xmlns:xlink="http://www.w3.org/1999/xlink" version="1.1" viewBox="8.056 0.07 59.646 75.08" preserveAspectRatio="xMidyMid meet">
<path fill="none" d="M40.227,8.917c0-2.221-1.801-4.021-4.022-4.021h-8.043c-2.221,0-4.021,1.8-4.021,4.021
	c0,2.222-1.609,4.021-1.609,4.021h19.302C41.834,12.938,40.227,11.139,40.227,8.917z"/>
<path d="M56.312,24.25V11.33c0-2.665-2.162-4.826-4.826-4.826h-6.435c0,0-1.605-0.192-1.608-2.409v0.798
	c-0.001-2.221-2.605-4.823-4.825-4.823H25.749c-2.221,0-4.826,1.8-4.826,4.021c0,2.221-1.608,2.413-1.608,2.413h-6.434
	c-2.665,0-4.825,2.161-4.825,4.826v45.039c0,2.664,2.161,4.825,4.825,4.825h12.921V24.25H56.312z M24.141,8.917
	c0-2.221,1.8-4.021,4.021-4.021h8.043c2.221,0,4.022,1.8,4.022,4.021c0,2.222,1.607,4.021,1.607,4.021H22.532
	C22.532,12.938,24.141,11.139,24.141,8.917z"/>
<path d="M29.491,27.143h23.654v14.506h14.557V75.15h-38.21V27.143z M56.142,38.459V27.143l11.56,11.316H56.142z"/>
</svg>
