<?xml version="1.0" encoding="utf-8"?>

<svg xmlns="http://www.w3.org/2000/svg" xmlns:xlink="http://www.w3.org/1999/xlink" version="1.1" viewBox="1.604 0.651 509.997 510.002" preserveAspectRatio="xMidyMid meet">
<path d="M505.398,453.886L285.774,234.264l-3.269-9.228L367,183.35l-83.78-39.964l30.27-89.223l-87.501,30.983L184.302,0.651
	l-39.965,83.781L55.115,54.163l30.982,87.501L1.604,183.35l83.779,39.966l-30.268,89.222l87.502-30.982l41.685,84.493l39.964-83.779
	l12.706,4.309l217.865,217.867c6.207,6.207,16.265,6.207,22.472,0l28.09-28.089C511.601,470.153,511.601,460.092,505.398,453.886z
	 M249.797,236.487l-12.36,12.358c-2.171,2.17-5.017,3.257-7.864,3.257c-2.846,0-5.692-1.087-7.865-3.257l-40.447-40.447
	c-4.343-4.343-4.343-11.385,0-15.73l12.36-12.358c4.343-4.344,11.385-4.344,15.729,0l40.447,40.446
	C254.14,225.1,254.14,232.142,249.797,236.487z M214.164,162.654c-6.205-6.205-18.03-7.97-24.236-1.766l-28.087,28.089
	c-6.205,6.205-4.44,18.03,1.765,24.235l48.621,48.622l-27.925,58.54l-31.265-63.369l-65.624,23.236l22.7-66.918L47.278,183.35
	l63.37-31.263L87.413,86.46l66.915,22.703l29.974-62.836l31.264,63.369l65.627-23.236l-22.703,66.916l62.835,29.974l-57.899,28.566
	L214.164,162.654z"/>
</svg>
