<?xml version="1.0" encoding="utf-8"?>

<svg xmlns="http://www.w3.org/2000/svg" xmlns:xlink="http://www.w3.org/1999/xlink" version="1.1" viewBox="20 17 36 42" preserveAspectRatio="xMidyMid meet">
	<path fill="#000000" fill-opacity="1" d="M 43,30L 50.75,30L 43,22.25L 43,30 Z M 52,34L 39,34L 39,21L 24,21L 24,45L 20,45L 20,17L 43.25,17L 56,29.75L 56,59L 34,59L 34,55L 52,55L 52,34 Z M 28,38L 33,38L 33,46L 41,46L 41,51L 33,51L 33,59L 28,59L 28,51L 20,51L 20,46L 28,46L 28,38 Z M 20,59L 20,52L 24,52L 24,55L 27,55L 27,59L 20,59 Z "/>
</svg>
