<?xml version="1.0" encoding="utf-8"?>

<svg xmlns="http://www.w3.org/2000/svg" xmlns:xlink="http://www.w3.org/1999/xlink" version="1.1" viewBox="20 17 36 42" preserveAspectRatio="xMidyMid meet">
	<path fill="#000000" fill-opacity="1" d="M 20,17L 43.25,17L 56,29.75L 56,59L 20,59L 20,17 Z M 24,21L 24,55L 52,55L 52,34L 39,34L 39,21L 24,21 Z M 43,22.25L 43,30L 50.75,30L 43,22.25 Z M 30,48L 34,48L 34,39.5L 37,42.5L 37,37.75L 32,32.75L 27,38.25L 27,42.5L 30,39.5L 30,48 Z M 38,49L 38,53L 26,53L 26,49L 38,49 Z "/>
</svg>
