<?xml version="1.0" encoding="utf-8"?>
<!-- Generator: Adobe Illustrator 24.0.1, SVG Export Plug-In . SVG Version: 6.00 Build 0)  -->
<svg version="1.1" id="Layer_1" xmlns="http://www.w3.org/2000/svg" xmlns:xlink="http://www.w3.org/1999/xlink" x="0px" y="0px"
	 viewBox="0 0 512 411" style="enable-background:new 0 0 512 411;" xml:space="preserve">
<style type="text/css">
	.st0{fill:#F48061;}
</style>
<g>
	<path class="st0" d="M230.9,98.2c6.9-9,19.2-15,33.3-15H488c0-14.1-14.3-25.6-31.9-25.6H239.1C238.8,28.6,217,0,177.3,0H55
		C16,0,0,15,0,53.8v67.4l177.3,0.4C199.8,121.6,219.5,112.3,230.9,98.2z"/>
	<path class="st0" d="M271.7,96c-12,0-22.6,5.2-28.2,13l-0.1-0.1c-12.2,15.3-32.9,25.4-56.4,25.4L0,134.9v238
		C0,391,24.8,411,48.8,411h412.4c21.5,0,50.8-22.4,50.8-40.4V96H271.7z M480,344.4c0,10.2-8.3,18.5-18.5,18.5
		c-10.2,0-18.5-8.3-18.5-18.5v-66.2L345.5,376c-7.3,7.1-19,7.1-26.3,0c-7.2-7.3-7.2-19,0-26.3l97.8-97.6h-66.2
		c-10.2,0-18.5-8.3-18.5-18.5s8.3-18.5,18.5-18.5h110.7c10.2,0,18.5,8.3,18.5,18.5V344.4z"/>
</g>
</svg>
