<?xml version="1.0" encoding="utf-8"?>

<svg xmlns="http://www.w3.org/2000/svg" xmlns:xlink="http://www.w3.org/1999/xlink" version="1.1" viewBox="0 47.5 512 411" preserveAspectRatio="xMidyMid meet">
<path fill="#F48061" d="M55,47.5c-39,0-55,15-55,53.783v67.43l177.313,0.401c22.465,0,42.215-9.329,53.57-23.42
	c6.871-8.974,19.207-14.96,33.289-14.96H488c0-14.133-14.27-25.587-31.875-25.587h-217.07C238.793,76.142,217.031,47.5,177.313,47.5
	H55z M271.742,143.527c-12.043,0-22.566,5.23-28.234,13.02l-0.082-0.063c-12.215,15.337-32.922,25.424-56.418,25.424L0,182.359
	v237.967c0,18.185,24.777,38.174,48.82,38.174h412.387c21.484,0,50.793-22.413,50.793-40.4V143.527H271.742z"/>
</svg>
