<?xml version="1.0" encoding="utf-8"?>

<svg xmlns="http://www.w3.org/2000/svg" xmlns:xlink="http://www.w3.org/1999/xlink" version="1.1" viewBox="0 47.5 512.001 411" preserveAspectRatio="xMidyMid meet">
<g>
	<path fill="#F48061" d="M230.883,145.694c6.871-8.974,19.207-14.96,33.289-14.96H488c0-14.133-14.271-25.587-31.875-25.587h-217.07
		C238.793,76.142,217.031,47.5,177.313,47.5H55c-39,0-55,15-55,53.783v67.43l177.313,0.401
		C199.778,169.114,219.528,159.785,230.883,145.694z"/>
	<path fill="#F48061" d="M271.742,143.527c-12.043,0-22.566,5.23-28.234,13.02l-0.082-0.063
		c-12.215,15.337-32.922,25.424-56.418,25.424L0,182.359v237.967C0,438.511,24.777,458.5,48.82,458.5h412.387
		c21.484,0,50.794-22.413,50.794-40.4V143.527H271.742z M223.5,406.5v-186L343,311L223.5,406.5z"/>
</g>
</svg>
