<?xml version="1.0" encoding="utf-8"?>

<svg xmlns="http://www.w3.org/2000/svg" xmlns:xlink="http://www.w3.org/1999/xlink" version="1.1" viewBox="11.99 -0.014 52.001 76.001" preserveAspectRatio="xMidyMid meet">
<path d="M19.99-0.014h36c4.368,0,8.001,3.628,8.001,8v60c0,4.371-3.633,8.001-8.001,8.001h-36c-4.366,0-8-3.63-8-8.001v-60
	C11.99,3.614,15.624-0.014,19.99-0.014z M17.99,9.986v50.001h10v11h2v-11h14v11h2.001v-11h12V9.986H17.99z M31.991,3.985v2h12v-2
	H31.991z M24.487,66.272v-1.094h-3.465l1.401-1.367h-1.471l-1.959,1.914l1.959,1.912h1.471l-1.401-1.365H24.487z M49.034,67.791
	c-0.219,0.211-0.219,0.624,0,0.837c0.215,0.211,0.636,0.211,0.854,0l1.471-1.399c0.316,0.167,0.676,0.194,1.059,0.194
	c1.227,0,2.223-0.904,2.223-2.1c0-1.199-0.996-2.17-2.223-2.17s-2.15,0.971-2.15,2.17c0,0.395,0.036,0.762,0.227,1.082
	L49.034,67.791z M52.417,63.968c0.767,0,1.391,0.605,1.391,1.355c0,0.746-0.624,1.354-1.391,1.354c-0.766,0-1.386-0.607-1.386-1.354
	C51.031,64.573,51.651,63.968,52.417,63.968z"/>
</svg>
