<?xml version="1.0" encoding="utf-8"?>

<svg xmlns="http://www.w3.org/2000/svg" xmlns:xlink="http://www.w3.org/1999/xlink" version="1.1" viewBox="21 24 35 30" preserveAspectRatio="xMidyMid meet">
	<path fill="#000000" fill-opacity="1" d="M 26,24L 29,24L 29,33L 26,33L 26,24 Z M 31,25L 34,25L 34,39L 31,39L 29,41L 29,51L 26,51L 26,41L 24,39L 21,39L 21,25L 24,25L 24,35L 31,35L 31,25 Z M 30,48L 30,44L 51,44L 51,30L 35,30L 35,26L 56,26L 56,48L 42,48L 42,51L 46,51L 47,54L 33,54L 34,51L 38,51L 38,48L 30,48 Z "/>
</svg>
