<?xml version="1.0" encoding="utf-8"?>

<svg xmlns="http://www.w3.org/2000/svg" xmlns:xlink="http://www.w3.org/1999/xlink" version="1.1" viewBox="19 17.4167 38 41.1666" preserveAspectRatio="xMidyMid meet">
	<path d="M 36.4167,36.4167L 36.4167,17.4167L 41.1667,17.4167L 41.1667,36.4167L 36.4167,36.4167 Z M 57,39.5833C 57,50.0767 48.4934,58.5833 38,58.5833C 27.5066,58.5833 19,50.0767 19,39.5833C 19,30.7301 25.0552,23.2911 33.25,21.1819L 33.25,27.8374C 28.6079,29.7165 25.3333,34.2675 25.3333,39.5833C 25.3333,46.5789 31.0044,52.25 38,52.25C 44.9956,52.25 50.6667,46.5789 50.6667,39.5833C 50.6667,34.8949 48.1194,30.8014 44.3333,28.6113L 44.3333,21.6645C 51.7129,24.2728 57,31.3106 57,39.5833 Z "/>
</svg>
