<?xml version="1.0" encoding="utf-8"?>

<svg xmlns="http://www.w3.org/2000/svg" xmlns:xlink="http://www.w3.org/1999/xlink" version="1.1" viewBox="14.25 19.7171 50.6667 34.9079" preserveAspectRatio="xMidyMid meet">
	<path d="M 55.4875,38.3425L 55.1016,35.1994L 64.5307,34.0417L 64.9167,37.1847L 55.4875,38.3425 Z M 53.4141,28.8958L 51.0608,26.7769L 57.4175,19.7171L 59.7708,21.836L 53.4141,28.8958 Z M 54.2292,47.1079L 55.4154,44.1718L 64.2237,47.7306L 63.0374,50.6667L 54.2292,47.1079 Z M 14.25,36.4167L 17.7814,34.8275L 19.2981,47.9725L 15.8333,47.5L 14.25,36.4167 Z M 45.9166,22.1667C 48.5555,26.9167 51.1944,31.6667 51.9861,36.6806C 52.7778,41.6945 51.7222,46.9722 50.6666,52.25L 35.4572,50.176L 34.0416,54.625L 26.125,54.625L 24.783,48.7204L 21.4945,48.272L 19.8365,33.9027L 45.9166,22.1667 Z M 28.1042,52.25L 32.0625,52.25L 32.91,49.8287L 27.3079,49.0647L 28.1042,52.25 Z "/>
</svg>
