<?xml version="1.0" encoding="utf-8"?>
<svg version="1.1" id="Layer_1" xmlns="http://www.w3.org/2000/svg" xmlns:xlink="http://www.w3.org/1999/xlink" x="0px" y="0px"
	 viewBox="0 0 76.4 73.5" style="enable-background:new 0 0 76.4 73.5;" xml:space="preserve">
<path d="M55,15.5c0,1.1-0.9,2-2,2H23.4c-1.1,0-2-0.9-2-2v-1c0-1.1,0.9-2,2-2H53c1.1,0,2,0.9,2,2V15.5z"/>
<path d="M58.4,25.2c0,1.1-0.9,2-2,2H20c-1.1,0-2-0.9-2-2v-1.1c0-1.1,0.9-2,2-2h36.4c1.1,0,2,0.9,2,2V25.2z"/>
<path d="M62.2,1.8c-0.5-1-1.8-1.8-2.9-1.8H17.1c-1.1,0-2.4,0.8-2.9,1.8L0.9,28.9c-0.5,1-0.9,2.7-0.9,3.8v32.8c0,4.4,3.6,8,8,8h60.4
	c4.4,0,8-3.6,8-8v-33c0-1.1-0.4-2.8-0.9-3.8L62.2,1.8z M65.6,52.8c0,1.1-0.9,2-2,2H57c-1.1,0-2-0.9-2-2v-6.6c0-1.1,0.9-2,2-2h6.6
	c1.1,0,2,0.9,2,2V52.8z M12.6,31.4c-1.1,0-1.6-0.8-1.2-1.8l8-18.9c0.4-1,1.7-1.8,2.8-1.8H54c1.1,0,2.4,0.8,2.8,1.8l8.6,19
	c0.5,1-0.1,1.8-1.2,1.8L12.6,31.4L12.6,31.4z"/>
</svg>
