<?xml version="1.0" encoding="utf-8"?>


<svg xmlns="http://www.w3.org/2000/svg" xmlns:xlink="http://www.w3.org/1999/xlink" version="1.1" viewBox="6.299 0 62.39 75.999" preserveAspectRatio="xMidyMid meet">
<path d="M10.199,40.905h54.589c2.155,0,3.901,1.747,3.901,3.9v27.295c0,2.153-1.746,3.899-3.901,3.899H10.199
	c-2.154,0-3.9-1.746-3.9-3.899V44.806C6.299,42.652,8.045,40.905,10.199,40.905z M12.148,46.755v23.396h50.693V46.755H12.148z
	 M16.047,48.705h9.749v9.748h-9.749V48.705z M27.746,48.705h7.798v9.748h-7.798V48.705z M16.047,60.402h9.749v7.797h-9.749V60.402z
	 M27.746,60.402h19.495v7.797H27.746V60.402z M37.494,48.705h9.748v9.748h-9.748V48.705z M49.192,48.705h9.747v9.748h-9.747V48.705z
	 M49.192,60.402h9.747v7.797h-9.747V60.402z"/>
<path d="M64.802,0H10.186C8.51,0,7.152,1.358,7.152,3.034V36.41c0,1.676,1.358,3.034,3.034,3.034h54.616
	c1.675,0,3.035-1.358,3.035-3.034V3.034C67.837,1.358,66.477,0,64.802,0z M61.768,33.375H13.22V6.068h48.547V33.375z"/>
<rect x="16.594" y="9.333" width="41.557" height="4.375"/>
<rect x="16.716" y="17.534" width="20" height="4.375"/>
<rect x="30.287" y="25.448" width="27.864" height="4.375"/>
</svg>
