<?xml version="1.0" encoding="utf-8"?>

<svg xmlns="http://www.w3.org/2000/svg" xmlns:xlink="http://www.w3.org/1999/xlink" version="1.1" viewBox="20 17 42.962 46.3333" preserveAspectRatio="xMidyMid meet">
	<path fill="#000000" fill-opacity="1" d="M 35.7788,47.7506C 34.5668,43.2489 38.0296,39.7861 40.973,39.2667C 43.9164,38.7472 46.3404,41.1712 48.7644,43.5952C 51.1884,41.1712 53.6124,38.7472 56.5558,39.2667C 59.4992,39.7861 62.962,43.2489 61.75,47.7506C 60.538,52.2523 54.6512,57.7928 48.7644,63.3333C 42.8776,57.7928 36.9908,52.2523 35.7788,47.7506 Z M 20,17L 43.25,17L 56,29.75L 56,37.75L 52,38.75L 52,34L 39,34L 39,21L 24,21L 24,55L 39,55L 42.75,59L 20,59L 20,17 Z M 43,22.25L 43,30L 50.75,30L 43,22.25 Z "/>
</svg>
