<?xml version="1.0" encoding="utf-8"?>
<svg version="1.1" xmlns="http://www.w3.org/2000/svg" xmlns:xlink="http://www.w3.org/1999/xlink" x="0px" y="0px" viewBox="0 0 440.3 512">
<path d="M297.2,0H0v512h440.3V143.7L297.2,0z M296.2,142.7V68.7l73.7,73.9L296.2,142.7L296.2,142.7z M405.8,444.3
	c0,11.8-9.6,21.3-21.3,21.3s-21.3-9.6-21.3-21.3v-76.6L250.3,480.9c-8.5,8.2-21.9,8.2-30.4,0c-8.3-8.4-8.3-22,0-30.4L333,337.6
	h-76.6c-11.8,0-21.3-9.6-21.3-21.3s9.6-21.3,21.3-21.3h128.1c11.8,0,21.3,9.6,21.3,21.3V444.3z"/>
</svg>
