<?xml version="1.0" encoding="utf-8"?>

<svg xmlns="http://www.w3.org/2000/svg" xmlns:xlink="http://www.w3.org/1999/xlink" version="1.1" viewBox="19 17 38 46" preserveAspectRatio="xMidyMid meet">
	<path d="M 19,17L 41.25,17L 54,29.75L 54,37L 50,37L 50,33L 38,33L 38,21L 23,21L 23,55L 34.25,55L 31,59L 19,59L 19,17 Z M 54,56.75L 50,51L 50,47L 54,42L 54,56.75 Z M 40.25,59L 43.235,55.3453L 45.5,59L 40.25,59 Z M 41,22.25L 41,30L 48.75,30L 41,22.25 Z M 32.25,38L 39.5,38L 44.0374,44.4221L 49,38L 55.5,38L 47.0067,48.7036L 57,63L 49.5,63L 43.2223,53.5201L 38,60L 31.5,60L 40.2529,49.2387L 32.25,38 Z "/>
</svg>
