<?xml version="1.0" encoding="utf-8"?>

<svg xmlns="http://www.w3.org/2000/svg" xmlns:xlink="http://www.w3.org/1999/xlink" version="1.1" viewBox="35 1 442 510.001" preserveAspectRatio="xMidyMid meet">
<path d="M136.999,128.498c0,51.548,28.55,95.947,69.628,116.046c-95.203,23.395-167,112.998-171.41,221.444
	c-0.144,0.534-0.217,1.072-0.217,1.619c0,0.398,0.039,0.795,0.117,1.188l-0.025,0.929c0.014,0.098,0.028,0.194,0.047,0.291h0.341
	c3.612,9.007,27.202,15.96,55.763,15.96c6.4,0,12.553-0.348,18.283-0.992c8.076-41.743,21.201-69.298,39.277-91.165
	c-11.93,28.786-20.524,45.875-21.492,89.893c-0.049,2.238,21.759,27.29,128.688,27.29c106.932,0,128.74-25.052,128.691-27.29
	c-0.965-44.018-9.563-61.106-21.493-89.893c18.078,21.867,31.203,49.422,39.276,91.165c5.733,0.645,11.884,0.992,18.285,0.992
	c28.562,0,52.151-6.953,55.763-15.96h0.341c0.019-0.097,0.034-0.193,0.048-0.291l-0.026-0.929c0.077-0.393,0.116-0.789,0.116-1.188
	c0-0.547-0.07-1.087-0.215-1.619c-4.41-108.446-76.208-198.05-171.413-221.444c41.08-20.099,69.629-64.498,69.629-116.046
	C375.001,58.082,321.723,1,255.999,1C190.277,1,136.999,58.082,136.999,128.498"/>
</svg>
