<?xml version="1.0" encoding="utf-8"?>
<svg version="1.1" id="Layer_1" xmlns="http://www.w3.org/2000/svg" xmlns:xlink="http://www.w3.org/1999/xlink" x="0px" y="0px"
	 viewBox="0 0 364 364" style="enable-background:new 0 0 364 364;" xml:space="preserve">
<style type="text/css">
	.st0{fill:#72BF56;}
	.st1{fill:#E197C1;}
	.st2{fill:#E1B6D0;}
	.st3{fill:#ECE048;}
	.st4{fill:#EEE787;}
	.st5{fill:#4BB7D8;}
	.st6{fill:#8CCFE4;}
	.st7{fill:#A1D18C;}
	.st8{fill:#F2C7E3;}
	.st9{fill:#B4E59C;}
	.st10{fill:#F4E98C;}
	.st11{fill:#95DEEF;}
</style>
<path class="st0" d="M182,182L182,182c0-0.2,0-0.4,0-0.6c0,0.2,0,0.3,0,0.5V182z"/>
<path class="st0" d="M182,181.9c0-0.2,0-0.3,0-0.5c0,0.2,0,0.4,0,0.6l0,0V181.9z"/>
<path class="st1" d="M182,182L182,182c-331.3,0-4.2-329.2,0-6.3c0,2,0,4,0,6C181.8-224.9-225,182,182,182z"/>
<path class="st2" d="M182,182L182,182c-180.9,0,0-173.8,0-0.2c0,0,0-1.3,0,0C181.9-80.3-80.4,182,182,182z"/>
<path class="st0" d="M182,182L182,182c-0.2,0-0.4,0-0.6,0c0.2,0,0.3,0,0.5,0C181.9,182,181.9,182,182,182z"/>
<path class="st0" d="M181.9,182c-0.2,0-0.3,0-0.5,0c0.2,0,0.4,0,0.6,0l0,0C181.9,182,181.9,182,181.9,182z"/>
<path class="st3" d="M182,182L182,182c0,331.3-329.2,4.2-6.3,0c2,0,4,0,6,0C-224.9,182.2,182,589,182,182z"/>
<path class="st4" d="M182,182L182,182c0,182-182,0-4.1,0c1.3,0,2.6,0,3.9,0C-80.3,182.1,182,444.4,182,182z"/>
<path class="st0" d="M182,181.4L182,181.4c0,0.2,0,0.4,0,0.6c0-0.2,0-0.3,0-0.5C182,181.5,182,181.5,182,181.4z"/>
<path class="st0" d="M182,181.5c0,0.2,0,0.3,0,0.5c0-0.2,0-0.4,0-0.6l0,0C182,181.5,182,181.5,182,181.5z"/>
<path class="st5" d="M182,182L182,182c331.3,0,4.2,329.2,0,6.3c0-2,0-4,0-6C182.2,588.9,589,182,182,182z"/>
<path class="st6" d="M182,182L182,182C364,182,182,359.9,182,182c0,0.2,0,1.5,0,0.2C182.1,444.3,444.4,182,182,182z"/>
<path class="st0" d="M182,182L182,182c0.2,0,0.4,0,0.6,0c-0.2,0-0.3,0-0.5,0H182z"/>
<path class="st0" d="M182.1,182c0.2,0,0.3,0,0.5,0c-0.2,0-0.4,0-0.6,0l0,0H182.1z"/>
<path class="st0" d="M182,182L182,182c0-331.3,329.2-4.2,6.3,0c-2,0-4,0-6,0C588.9,181.8,182-225,182,182z"/>
<path class="st7" d="M182,182L182,182C182,0,359.9,182,182,182c0,0,1.5,0,0.2,0C444.3,181.9,182-80.4,182,182z"/>
<path class="st8" d="M182,181.9C182,77.6,77.6,182,182,181.9"/>
<path class="st9" d="M182,182C286.4,182,182,77.6,182,182"/>
<path class="st10" d="M182,182C77.6,182,182,286.4,182,182"/>
<path class="st11" d="M182,182.1C182,286.4,286.4,182,182,182.1"/>
</svg>
