<?xml version="1.0" encoding="utf-8"?>
<svg version="1.1" id="Layer_1" xmlns="http://www.w3.org/2000/svg" xmlns:xlink="http://www.w3.org/1999/xlink" x="0px" y="0px"
	 viewBox="0 0 364 364" style="enable-background:new 0 0 364 364;" xml:space="preserve">
<style type="text/css">
	.st0{fill:#72BF56;}
	.st1{fill:#E197C1;}
	.st2{fill:#E1B6D0;}
	.st3{fill:#ECE048;}
	.st4{fill:#EEE787;}
	.st5{fill:#4BB7D8;}
	.st6{fill:#8CCFE4;}
	.st7{fill:#A1D18C;}
	.st8{fill:#231F20;stroke:#FFFFFF;}
</style>
<g>
	<path class="st0" d="M182,182L182,182c0-0.2,0-0.4,0-0.6c0,0.2,0,0.3,0,0.5C182,181.9,182,182,182,182z"/>
	<path class="st0" d="M182,181.9c0-0.2,0-0.3,0-0.5c0,0.2,0,0.4,0,0.6l0,0C182,182,182,181.9,182,181.9z"/>
	<path class="st1" d="M182,182L182,182c-331.3,0-4.2-329.2,0-6.3c0,2,0,4,0,6C181.8-224.9-225,182,182,182z"/>
	<path class="st2" d="M182,182L182,182c-213.6,0-2.7-212.3,0-4.1c0,1.3,0,2.6,0,3.9C181.9-80.3-80.4,182,182,182z"/>
	<path class="st0" d="M182,182L182,182c-0.2,0-0.4,0-0.6,0c0.2,0,0.3,0,0.5,0C181.9,182,181.9,182,182,182z"/>
	<path class="st0" d="M181.9,182c-0.2,0-0.3,0-0.5,0c0.2,0,0.4,0,0.6,0l0,0C181.9,182,181.9,182,181.9,182z"/>
	<path class="st3" d="M182,182L182,182c0,331.3-329.2,4.2-6.3,0c2,0,4,0,6,0C-224.9,182.2,182,589,182,182z"/>
	<path class="st4" d="M182,182L182,182c0,213.6-212.3,2.7-4.1,0c1.3,0,2.6,0,3.9,0C-80.3,182.1,182,444.4,182,182z"/>
	<path class="st0" d="M182,181.4L182,181.4c0,0.2,0,0.4,0,0.6c0-0.2,0-0.3,0-0.5C182,181.5,182,181.5,182,181.4z"/>
	<path class="st0" d="M182,181.5c0,0.2,0,0.3,0,0.5c0-0.2,0-0.4,0-0.6l0,0C182,181.5,182,181.5,182,181.5z"/>
	<path class="st5" d="M182,182L182,182c331.3,0,4.2,329.2,0,6.3c0-2,0-4,0-6C182.2,588.9,589,182,182,182z"/>
	<path class="st6" d="M182,182L182,182c213.6,0,2.7,212.3,0,4.1c0-1.3,0-2.6,0-3.9C182.1,444.3,444.4,182,182,182z"/>
	<path class="st0" d="M182,182L182,182c0.2,0,0.4,0,0.6,0c-0.2,0-0.3,0-0.5,0C182.1,182,182,182,182,182z"/>
	<path class="st0" d="M182.1,182c0.2,0,0.3,0,0.5,0c-0.2,0-0.4,0-0.6,0l0,0C182,182,182.1,182,182.1,182z"/>
	<path class="st0" d="M182,182L182,182c0-331.3,329.2-4.2,6.3,0c-2,0-4,0-6,0C588.9,181.8,182-225,182,182z"/>
	<path class="st7" d="M182,182L182,182c0-213.6,212.3-2.7,4.1,0c-1.3,0-2.6,0-3.9,0C444.3,181.9,182-80.4,182,182z"/>
	<g>
		<path class="st8" d="M33,157.8c3,1.5,5.3,3.6,6.9,6.4c1.5,2.7,2.3,6,2.3,9.8c0,3.8-0.8,7-2.3,9.8c-1.5,2.8-3.8,4.9-6.9,6.4
			c-3,1.5-6.8,2.2-11.2,2.2h-8.3v12.2c0,1-0.2,1.7-0.6,2.1c-0.4,0.4-1.1,0.6-2.1,0.6H5.4c-1,0-1.7-0.2-2.1-0.6
			c-0.4-0.4-0.6-1.1-0.6-2.1v-46.2c0-1,0.2-1.7,0.6-2.1c0.4-0.4,1.1-0.6,2.1-0.6h16.4C26.2,155.6,30,156.3,33,157.8z M28.3,180.1
			c1.8-1.3,2.6-3.4,2.6-6.2c0-2.8-0.9-4.8-2.6-6.2c-1.8-1.3-4.4-2-7.8-2h-6.9v16.3h6.9C23.9,182.1,26.5,181.5,28.3,180.1z"/>
		<path class="st8" d="M97.6,204.2c0,0.7-0.3,1.4-1,1.9c-0.7,0.5-1.8,1-3.4,1.3c-1.5,0.3-2.7,0.5-3.6,0.5c-0.8,0-1.5-0.1-1.9-0.4
			c-0.5-0.3-0.8-0.7-1-1.4l-3-8.4H64.5l-3.1,8.4c-0.2,0.6-0.6,1.1-1.1,1.4c-0.5,0.3-1.1,0.4-1.9,0.4c-0.9,0-2-0.2-3.5-0.5
			c-1.6-0.3-2.7-0.8-3.4-1.3c-0.7-0.5-1-1.1-1-1.8c0-0.3,0.1-0.7,0.3-1.2l17.4-45.6c0.4-1,1.1-1.8,2-2.2c0.9-0.4,2.3-0.6,4.2-0.6
			c1.9,0,3.3,0.2,4.2,0.7c0.9,0.4,1.6,1.2,1.9,2.2l16.8,45.6C97.5,203.4,97.6,203.7,97.6,204.2z M68,187.5h12.4l-6-17.9h-0.2
			L68,187.5z"/>
		<path class="st8" d="M147.2,201.7c0.3,0.5,0.5,1,0.5,1.6c0,0.6-0.3,1.2-0.9,1.7c-0.6,0.6-1.5,1.1-2.9,1.7
			c-1.9,0.8-3.4,1.2-4.3,1.2c-1,0-1.8-0.5-2.3-1.4l-10.2-16.7h-7.1v14.7c0,1-0.2,1.7-0.6,2.1c-0.4,0.4-1.1,0.6-2.1,0.6H112
			c-1,0-1.7-0.2-2.1-0.6c-0.4-0.4-0.6-1.1-0.6-2.1v-46.2c0-1,0.2-1.7,0.7-2.1c0.4-0.4,1.1-0.6,2.1-0.6h16.9c4,0,7.5,0.7,10.3,2
			c2.8,1.4,5,3.3,6.5,5.9c1.5,2.6,2.2,5.6,2.2,9.2c0,3.7-0.8,6.8-2.4,9.5c-1.6,2.6-3.8,4.6-6.8,5.8L147.2,201.7z M120.1,179.6h7.8
			c3,0,5.2-0.6,6.6-1.7c1.4-1.1,2.1-2.8,2.1-5.2c0-2.4-0.7-4.1-2.1-5.2c-1.4-1.1-3.6-1.7-6.6-1.7h-7.8V179.6z"/>
		<path class="st8" d="M204.6,204.2c0,0.7-0.3,1.4-1,1.9c-0.7,0.5-1.8,1-3.4,1.3c-1.5,0.3-2.7,0.5-3.6,0.5c-0.8,0-1.5-0.1-1.9-0.4
			c-0.5-0.3-0.8-0.7-1-1.4l-3-8.4h-19.1l-3.1,8.4c-0.2,0.6-0.6,1.1-1.1,1.4c-0.5,0.3-1.1,0.4-1.9,0.4c-0.9,0-2-0.2-3.5-0.5
			c-1.6-0.3-2.7-0.8-3.4-1.3c-0.7-0.5-1-1.1-1-1.8c0-0.3,0.1-0.7,0.3-1.2l17.4-45.6c0.4-1,1.1-1.8,2-2.2c0.9-0.4,2.3-0.6,4.2-0.6
			c1.9,0,3.3,0.2,4.2,0.7c0.9,0.4,1.6,1.2,1.9,2.2l16.8,45.6C204.5,203.4,204.6,203.7,204.6,204.2z M175,187.5h12.4l-6-17.9h-0.2
			L175,187.5z"/>
		<path class="st8" d="M242.9,155.4c3,0.6,5.8,1.4,8.4,2.4c1.5,0.6,2.3,1.8,2.3,3.5c0,0.7-0.1,1.6-0.4,2.6c-0.3,1.3-0.8,2.3-1.4,3
			c-0.6,0.6-1.2,1-2,1c-0.3,0-0.7-0.1-1.1-0.2c-2.3-0.8-4.7-1.5-7.4-2c-2.6-0.5-5.1-0.7-7.5-0.7c-2.5,0-4.5,0.5-5.9,1.5
			c-1.4,1-2.1,2.4-2.1,4.1c0,1.6,1,2.8,3,3.5c0.8,0.3,1.7,0.5,2.8,0.7c1.1,0.2,2.4,0.4,4,0.5c2.9,0.4,5.3,0.8,7.3,1.2
			c1.9,0.4,3.7,1.1,5.4,2c2.1,1.2,3.8,2.8,5.1,4.9c1.2,2.1,1.8,4.8,1.8,8.2c0,3.4-0.8,6.4-2.4,8.9c-1.6,2.5-3.9,4.4-6.9,5.8
			c-3,1.4-6.7,2-11,2c-3.2,0-6.4-0.3-9.8-1s-6.3-1.6-8.8-2.8c-1.3-0.6-2-1.7-2-3.2c0-0.9,0.2-1.9,0.6-3c0.4-1.2,0.9-2.2,1.5-2.8
			c0.6-0.6,1.2-0.9,1.9-0.9c0.5,0,0.9,0.1,1.3,0.3c2.1,1,4.4,1.7,7.1,2.3c2.7,0.5,5.3,0.8,7.8,0.8c3,0,5.3-0.5,6.8-1.5
			c1.6-1,2.4-2.4,2.4-4.2c0-1.1-0.3-2.1-0.9-2.8c-0.6-0.7-1.4-1.3-2.6-1.8c-0.9-0.4-1.9-0.7-3.1-0.9c-1.1-0.2-2.7-0.5-4.7-0.8
			c-2.7-0.4-4.9-0.8-6.6-1.2c-1.7-0.4-3.2-0.9-4.7-1.6c-2.2-1.1-3.9-2.6-5.1-4.5c-1.2-1.9-1.8-4.4-1.8-7.5c0-3.4,0.8-6.3,2.4-8.8
			c1.6-2.5,3.8-4.4,6.8-5.8c2.9-1.4,6.3-2,10.3-2C236.9,154.6,239.9,154.9,242.9,155.4z"/>
		<path class="st8" d="M300.8,157.8c3.6,2.2,6.4,5.3,8.4,9.3c2,4,3,8.8,3,14.2c0,5.5-1,10.2-3,14.2c-2,4-4.8,7.1-8.4,9.3
			c-3.6,2.2-7.8,3.3-12.5,3.3s-8.9-1.1-12.5-3.3c-3.6-2.2-6.4-5.3-8.4-9.3c-2-4-3-8.8-3-14.2c0-5.5,1-10.2,3-14.2
			c2-4,4.8-7.1,8.4-9.3c3.6-2.2,7.8-3.2,12.5-3.2S297.2,155.7,300.8,157.8z M278.9,169.2c-2.1,2.8-3.2,6.9-3.2,12.2
			c0,5.3,1.1,9.4,3.2,12.2c2.1,2.8,5.2,4.3,9.3,4.3c4.1,0,7.2-1.4,9.3-4.3s3.2-6.9,3.2-12.2c0-5.3-1.1-9.4-3.2-12.2
			s-5.2-4.2-9.3-4.2C284.1,164.9,281,166.3,278.9,169.2z"/>
		<path class="st8" d="M360.4,197.5c0.4,0.3,0.7,0.8,0.8,1.5c0.2,0.7,0.3,1.8,0.3,3.2c0,1.4-0.1,2.4-0.3,3.2
			c-0.2,0.7-0.5,1.2-0.8,1.5c-0.4,0.3-0.9,0.4-1.6,0.4h-31.9c-1,0-1.7-0.2-2.1-0.6c-0.4-0.4-0.6-1.1-0.6-2.1v-46.2
			c0-1,0.2-1.7,0.6-2.1c0.4-0.4,1.1-0.6,2.1-0.6h5.4c1,0,1.7,0.2,2.1,0.6c0.4,0.4,0.6,1.1,0.6,2.1V197h23.8
			C359.4,197,360,197.2,360.4,197.5z"/>
	</g>
</g>
</svg>
