<?xml version="1.0" encoding="utf-8"?>

<svg xmlns="http://www.w3.org/2000/svg" xmlns:xlink="http://www.w3.org/1999/xlink" version="1.1" viewBox="17.4167 19.0802 41.1666 38.2365" preserveAspectRatio="xMidyMid meet">
	<path d="M 24.9015,54.3611C 24.9015,56.1567 23.3079,57.3167 21.0343,57.3167C 19.0572,57.3167 17.8137,55.829 17.4167,54.3611C 18.3616,46.6788 28.0244,39.5833 38,39.5833C 47.9756,39.5833 57.6384,46.6788 58.5833,54.3611C 58.1863,55.829 56.9428,57.3166 54.9656,57.3166C 52.6921,57.3166 51.0985,56.1566 51.0985,54.3611L 50.9037,54.0515C 49.8315,49.1903 44.4623,46.2861 38,46.2861C 31.5377,46.2861 26.1685,49.1903 25.0963,54.0515L 24.9015,54.3611 Z M 33.25,26.9167C 33.25,31.2889 30.7689,34.8333 27.7083,34.8333C 24.6478,34.8333 22.1667,31.2889 22.1667,26.9167L 28.5,19.0802C 31.1856,19.6289 33.25,22.9284 33.25,26.9167 Z M 42.75,26.9167C 42.75,22.9284 44.8144,19.6289 47.5,19.0802L 53.8333,26.9167C 53.8333,31.2889 51.3522,34.8333 48.2917,34.8333C 45.2311,34.8333 42.75,31.2889 42.75,26.9167 Z "/>
</svg>
