<?xml version="1.0" encoding="utf-8"?>

<svg xmlns="http://www.w3.org/2000/svg" xmlns:xlink="http://www.w3.org/1999/xlink" version="1.1" viewBox="19.002850001579 21.003065790554 38.005600002368 34.005068423628" preserveAspectRatio="xMidyMid meet">
	<path fill="#000000" fill-opacity="1" d="M 57.0079,21.0029L 57.0079,25.0034L 19.0027,25.0034L 19.0027,21.0029L 57.0079,21.0029 Z M 57.0079,27.0038L 57.0079,31.0042L 19.0027,31.0042L 19.0027,27.0038L 57.0079,27.0038 Z M 57.008,33.0046L 57.008,37.005L 19.0027,37.0052L 19.0027,33.0047L 57.008,33.0046 Z M 57.0079,39.0054L 57.0079,43.0059L 19.0027,43.0059L 19.0027,39.0054L 57.0079,39.0054 Z M 57.008,45.0064L 57.008,49.0068L 19.0027,49.0068L 19.0027,45.0064L 57.008,45.0064 Z M 57.008,51.0073L 57.008,55.0077L 19.0027,55.0077L 19.0027,51.0073L 57.008,51.0073 Z "/>
</svg>
