<?xml version="1.0" encoding="utf-8"?>

<svg xmlns="http://www.w3.org/2000/svg" xmlns:xlink="http://www.w3.org/1999/xlink" version="1.1" viewBox="16 19 44 38" preserveAspectRatio="xMidyMid meet">
	<path fill="#000000" fill-opacity="1" d="M 57,57L 57,52.1666L 52,57L 47.25,57L 51.5357,53L 24.4643,52.9999L 28.75,57L 24,56.9999L 19,52.1666L 19,56.9999L 16,56.9999L 16,44.9999L 19,44.9999L 19,49.8332L 24,44.9999L 28.7499,44.9999L 24.4643,48.9999L 51.5357,49L 47.25,45L 52,45L 57,49.8333L 57,45L 60,45L 60,57L 57,57 Z M 16,41L 16,19L 60,19L 60,41L 16,41 Z M 20,23L 20,37L 56,37L 56,23L 20,23 Z "/>
</svg>
