<?xml version="1.0" encoding="utf-8"?>

<svg xmlns="http://www.w3.org/2000/svg" xmlns:xlink="http://www.w3.org/1999/xlink" version="1.1" viewBox="14 24 51 29" preserveAspectRatio="xMidyMid meet">
	<path fill="#000000" fill-opacity="1" d="M 50,48L 50,43L 55,43L 55,38L 60,38L 60,43L 65,43L 65,48L 60,48L 60,53L 55,53L 55,48L 50,48 Z M 14,51L 14,24L 40,24L 40,40L 46,40L 46,51L 14,51 Z M 43,43L 17,43L 17,48L 43,48L 43,43 Z M 37,40L 37,35L 17,35L 17,40L 37,40 Z M 37,32L 37,27L 17,27L 17,32L 37,32 Z "/>
</svg>
