<?xml version="1.0" encoding="utf-8"?>

<svg xmlns="http://www.w3.org/2000/svg" xmlns:xlink="http://www.w3.org/1999/xlink" version="1.1" viewBox="13 20 50 36" preserveAspectRatio="xMidyMid meet">
	<path d="M 60,50L 63,50L 63,53L 60,53L 60,56L 57,56L 57,53L 19,53L 19,56L 16,56L 16,53L 13,53L 13,50L 16,50L 16,26L 13,26L 13,23L 16,23L 16,20L 19,20L 19,23L 57,23L 57,20L 60,20L 60,23L 63,23L 63,26L 60,26L 60,50 Z M 19,26.0001L 19,50L 56.9999,50L 56.9999,26.0001L 19,26.0001 Z M 22,34L 36,34L 36,37L 22,37L 22,34 Z M 22,39L 34,39L 34,42L 22,42L 22,39 Z M 22,29L 44,29L 44,32L 22,32L 22,29 Z M 22,44L 40,44L 40,47L 22,47L 22,44 Z "/>
</svg>
