<?xml version="1.0" encoding="utf-8"?>


<svg xmlns="http://www.w3.org/2000/svg" xmlns:xlink="http://www.w3.org/1999/xlink" version="1.1" viewBox="3.696 17.786 504.61 464.865" preserveAspectRatio="xMidyMid meet">
<path fill="#231F20" d="M445.347,59.112L276.273,17.786l-71.868,294.03l252.483,61.713l51.418-210.364L445.347,59.112z
	 M424.993,142.383L424.993,142.383l11.458-46.876l35.408,58.332L424.993,142.383L424.993,142.383L424.993,142.383z M306.99,69.662
	l85.293,20.848l-8.974,36.713l-85.293-20.848L306.99,69.662z M295.245,117.711l85.294,20.848l-5.537,22.655l-85.294-20.848
	L295.245,117.711z M425.829,321.822l-170.299-41.625l5.249-21.474l170.299,41.625L425.829,321.822z M434.422,286.669
	l-170.299-41.625l5.156-21.097l170.299,41.625L434.422,286.669z M442.918,251.907l-170.299-41.625l5.634-23.048l170.299,41.625
	L442.918,251.907z M451.589,216.435l-170.3-41.625l5.46-22.337l170.299,41.625L451.589,216.435z"/>
<polygon fill="#6ABD45" stroke="#231F20" points="424.993,142.383 424.993,142.384 424.993,142.383 "/>
<polygon fill="#231F20" points="254.04,46.413 92.472,98.875 184.452,382.145 294.007,346.571 187.063,320.432 "/>
<polygon fill="#231F20" points="175.86,400.826 99.426,165.435 3.696,259.986 223.617,482.651 348.028,359.775 321.931,353.396 "/>
</svg>
