<?xml version="1.0" encoding="utf-8"?>

<svg xmlns="http://www.w3.org/2000/svg" xmlns:xlink="http://www.w3.org/1999/xlink" version="1.1" viewBox="15.8333 20.5833 44.3334 34.8334" preserveAspectRatio="xMidyMid meet">
	<path fill="#000000" fill-opacity="1" d="M 55.4167,26.9167C 58.04,26.9167 60.1667,29.0433 60.1667,31.6667L 60.1667,50.6667C 60.1667,53.29 58.04,55.4167 55.4167,55.4167L 53.8333,55.4167L 53.8333,26.9167L 55.4167,26.9167 Z M 23.75,55.4167L 23.75,26.9167L 31.6667,26.9167L 31.6667,25.3333C 31.6667,22.71 33.7933,20.5833 36.4167,20.5833L 41.1667,20.5833C 43.79,20.5833 45.9167,22.71 45.9167,25.3333L 45.9167,26.9167L 52.25,26.9167L 52.25,55.4167L 23.75,55.4167 Z M 20.5833,55.4167C 17.96,55.4167 15.8333,53.29 15.8333,50.6667L 15.8333,31.6667C 15.8333,29.0433 17.96,26.9167 20.5833,26.9167L 22.1667,26.9167L 22.1667,55.4167L 20.5833,55.4167 Z M 38.7916,23.75C 36.8766,23.75 35.2792,25.1099 34.9125,26.9167L 42.6708,26.9167C 42.3041,25.1099 40.7067,23.75 38.7916,23.75 Z "/>
</svg>
