<?xml version="1.0" encoding="utf-8"?>

<svg xmlns="http://www.w3.org/2000/svg" xmlns:xlink="http://www.w3.org/1999/xlink" version="1.1" viewBox="16.625 16.625 42.75 42.75" preserveAspectRatio="xMidyMid meet">
	<path fill="#000000" fill-opacity="1" d="M 38,27.1542C 43.99,27.1542 48.8458,32.01 48.8458,38C 48.8458,43.99 43.99,48.8458 38,48.8458C 32.01,48.8458 27.1542,43.99 27.1542,38C 27.1542,32.01 32.01,27.1542 38,27.1542 Z M 38,16.625C 49.8051,16.625 59.375,26.1949 59.375,38C 59.375,49.8051 49.8051,59.375 38,59.375C 26.1949,59.375 16.625,49.8051 16.625,38C 16.625,26.1949 26.1949,16.625 38,16.625 Z M 38,20.5833C 28.381,20.5833 20.5833,28.381 20.5833,38C 20.5833,47.619 28.381,55.4167 38,55.4167C 47.6189,55.4167 55.4167,47.619 55.4167,38C 55.4167,28.381 47.619,20.5833 38,20.5833 Z "/>
</svg>
