<?xml version="1.0" encoding="utf-8"?>

<svg xmlns="http://www.w3.org/2000/svg" xmlns:xlink="http://www.w3.org/1999/xlink" version="1.1" viewBox="19 19 38 34.8333" preserveAspectRatio="xMidyMid meet">
	<path d="M 37.2083,42.75L 28.5,31.6667L 33.25,31.6667L 33.25,19L 42.75,19L 42.75,31.6667L 47.5,31.6667L 38.7917,42.75L 37.2083,42.75 Z M 19,38L 23.75,26.9167L 29.6875,26.9167L 29.6875,30.0833L 26.125,30.0833L 22.9583,38L 30.875,38C 30.875,41.935 34.065,45.125 38,45.125C 41.935,45.125 45.125,41.935 45.125,38L 53.0417,38L 49.875,30.0833L 46.3125,30.0833L 46.3125,26.9167L 52.25,26.9167L 57,38L 57,53.8333L 19,53.8333L 19,38 Z "/>
</svg>
